<mxfile host="Electron" agent="Mozilla/5.0 (Windows NT 10.0; Win64; x64) AppleWebKit/537.36 (KHTML, like Gecko) draw.io/24.7.5 Chrome/126.0.6478.183 Electron/31.3.0 Safari/537.36" version="24.7.5">
  <diagram name="Page-1" id="MPWGc2Xjr0jboXtyPSAv">
    <mxGraphModel dx="2501" dy="878" grid="1" gridSize="10" guides="1" tooltips="1" connect="1" arrows="1" fold="1" page="1" pageScale="1" pageWidth="827" pageHeight="1169" math="0" shadow="0">
      <root>
        <mxCell id="0" />
        <mxCell id="1" parent="0" />
        <mxCell id="RNOjfNPxnVxLPHalCjSS-9" value="" style="edgeStyle=orthogonalEdgeStyle;rounded=0;orthogonalLoop=1;jettySize=auto;html=1;entryX=0.5;entryY=0;entryDx=0;entryDy=0;" parent="1" source="RNOjfNPxnVxLPHalCjSS-3" target="QWpg3al_tcsH8TkOB3aV-30" edge="1">
          <mxGeometry relative="1" as="geometry">
            <mxPoint x="255" y="250" as="targetPoint" />
          </mxGeometry>
        </mxCell>
        <mxCell id="RNOjfNPxnVxLPHalCjSS-10" value="调用大模型" style="edgeLabel;html=1;align=center;verticalAlign=middle;resizable=0;points=[];" parent="RNOjfNPxnVxLPHalCjSS-9" vertex="1" connectable="0">
          <mxGeometry x="0.0444" relative="1" as="geometry">
            <mxPoint as="offset" />
          </mxGeometry>
        </mxCell>
        <mxCell id="RNOjfNPxnVxLPHalCjSS-3" value="&lt;p style=&quot;line-height: 100%;&quot;&gt;&lt;font style=&quot;font-size: 15px;&quot;&gt;【query】&lt;/font&gt;&lt;/p&gt;&lt;p style=&quot;line-height: 100%;&quot;&gt;&lt;font style=&quot;font-size: 15px;&quot;&gt;上海天气怎么样&lt;/font&gt;&lt;/p&gt;" style="shape=document;whiteSpace=wrap;html=1;boundedLbl=1;fillColor=#d5e8d4;strokeColor=#82b366;" parent="1" vertex="1">
          <mxGeometry x="95" y="120" width="140" height="80" as="geometry" />
        </mxCell>
        <mxCell id="RNOjfNPxnVxLPHalCjSS-16" value="" style="edgeStyle=orthogonalEdgeStyle;rounded=0;orthogonalLoop=1;jettySize=auto;html=1;entryX=0.5;entryY=0;entryDx=0;entryDy=0;exitX=1;exitY=0.5;exitDx=0;exitDy=0;" parent="1" target="RNOjfNPxnVxLPHalCjSS-48" edge="1" source="QWpg3al_tcsH8TkOB3aV-31">
          <mxGeometry relative="1" as="geometry">
            <mxPoint x="170" y="810" as="sourcePoint" />
            <mxPoint x="1020" y="360" as="targetPoint" />
            <Array as="points">
              <mxPoint x="720" y="1270" />
              <mxPoint x="720" y="110" />
              <mxPoint x="1195" y="110" />
            </Array>
          </mxGeometry>
        </mxCell>
        <mxCell id="RNOjfNPxnVxLPHalCjSS-17" value="&lt;font style=&quot;font-size: 12px;&quot;&gt;执行返回的代码块&lt;/font&gt;&lt;div style=&quot;font-size: 12px;&quot;&gt;&lt;span style=&quot;&quot;&gt;&lt;font style=&quot;font-size: 12px;&quot;&gt;主要逻辑是&lt;span style=&quot;font-family: Consolas, &amp;quot;Courier New&amp;quot;, monospace; white-space-collapse: preserve;&quot;&gt;WebSearchGraph.&lt;/span&gt;&lt;/font&gt;&lt;/span&gt;&lt;/div&gt;&lt;div style=&quot;font-size: 12px;&quot;&gt;&lt;span style=&quot;&quot;&gt;&lt;font style=&quot;font-size: 12px;&quot;&gt;add_node中的stream_chat&lt;/font&gt;&lt;/span&gt;&lt;/div&gt;" style="edgeLabel;html=1;align=center;verticalAlign=middle;resizable=0;points=[];labelBackgroundColor=default;" parent="RNOjfNPxnVxLPHalCjSS-16" vertex="1" connectable="0">
          <mxGeometry x="-0.1238" y="2" relative="1" as="geometry">
            <mxPoint x="2" y="156" as="offset" />
          </mxGeometry>
        </mxCell>
        <mxCell id="RNOjfNPxnVxLPHalCjSS-48" value="&lt;div style=&quot;text-align: justify;&quot;&gt;&lt;span style=&quot;font-size: 15px; font-weight: 400; background-color: initial;&quot;&gt;-&amp;gt; WebSearchGraph.add_node&lt;/span&gt;&lt;br&gt;&lt;/div&gt;&lt;div style=&quot;text-align: justify;&quot;&gt;&lt;span style=&quot;font-size: 15px; font-weight: 400;&quot;&gt;-&amp;gt; SearchAgent.stream_chat&lt;/span&gt;&lt;/div&gt;" style="swimlane;whiteSpace=wrap;html=1;startSize=80;fillColor=#fad7ac;strokeColor=#b46504;align=center;" parent="1" vertex="1">
          <mxGeometry x="820" y="130" width="750" height="4480" as="geometry">
            <mxRectangle x="1030" y="160" width="280" height="50" as="alternateBounds" />
          </mxGeometry>
        </mxCell>
        <mxCell id="6S-SjZewDLx2lpDAVwIO-25" value="第 1 次调用大模型" style="swimlane;whiteSpace=wrap;html=1;fillColor=#f8cecc;strokeColor=#b85450;" vertex="1" parent="RNOjfNPxnVxLPHalCjSS-48">
          <mxGeometry x="10" y="100" width="720" height="1160" as="geometry">
            <mxRectangle x="10" y="100" width="140" height="30" as="alternateBounds" />
          </mxGeometry>
        </mxCell>
        <mxCell id="RNOjfNPxnVxLPHalCjSS-53" value="response" style="rounded=0;whiteSpace=wrap;html=1;strokeColor=none;fillColor=none;" parent="6S-SjZewDLx2lpDAVwIO-25" vertex="1">
          <mxGeometry x="590" y="130" width="100" height="10" as="geometry" />
        </mxCell>
        <mxCell id="6S-SjZewDLx2lpDAVwIO-66" value="" style="edgeStyle=orthogonalEdgeStyle;rounded=0;orthogonalLoop=1;jettySize=auto;html=1;" edge="1" parent="6S-SjZewDLx2lpDAVwIO-25" source="6S-SjZewDLx2lpDAVwIO-60" target="6S-SjZewDLx2lpDAVwIO-62">
          <mxGeometry relative="1" as="geometry" />
        </mxCell>
        <mxCell id="6S-SjZewDLx2lpDAVwIO-67" value="&lt;font style=&quot;font-size: 12px;&quot;&gt;promt组装&lt;/font&gt;" style="edgeLabel;html=1;align=center;verticalAlign=middle;resizable=0;points=[];" vertex="1" connectable="0" parent="6S-SjZewDLx2lpDAVwIO-66">
          <mxGeometry x="-0.35" relative="1" as="geometry">
            <mxPoint as="offset" />
          </mxGeometry>
        </mxCell>
        <mxCell id="6S-SjZewDLx2lpDAVwIO-60" value="&lt;p style=&quot;line-height: 100%;&quot;&gt;&lt;font style=&quot;font-size: 15px;&quot;&gt;【query】&lt;/font&gt;&lt;/p&gt;&lt;p style=&quot;line-height: 30%; font-size: 13px;&quot;&gt;&lt;font style=&quot;font-size: 13px;&quot;&gt;## 主问题&lt;/font&gt;&lt;/p&gt;&lt;p style=&quot;line-height: 30%; font-size: 13px;&quot;&gt;&lt;font style=&quot;font-size: 13px;&quot;&gt;上海天气&lt;/font&gt;&lt;/p&gt;&lt;p style=&quot;line-height: 30%; font-size: 13px;&quot;&gt;&lt;font style=&quot;font-size: 13px;&quot;&gt;## 当前问题&lt;/font&gt;&lt;/p&gt;&lt;p style=&quot;line-height: 30%; font-size: 13px;&quot;&gt;&lt;font style=&quot;font-size: 13px;&quot;&gt;上海今天的天气怎么样？&lt;/font&gt;&lt;/p&gt;" style="shape=document;whiteSpace=wrap;html=1;boundedLbl=1;fillColor=#d5e8d4;strokeColor=#82b366;" vertex="1" parent="6S-SjZewDLx2lpDAVwIO-25">
          <mxGeometry x="271.5" y="30" width="195" height="120" as="geometry" />
        </mxCell>
        <mxCell id="6S-SjZewDLx2lpDAVwIO-68" style="edgeStyle=orthogonalEdgeStyle;rounded=0;orthogonalLoop=1;jettySize=auto;html=1;exitX=0.5;exitY=1;exitDx=0;exitDy=0;" edge="1" parent="6S-SjZewDLx2lpDAVwIO-25" source="6S-SjZewDLx2lpDAVwIO-62" target="RNOjfNPxnVxLPHalCjSS-51">
          <mxGeometry relative="1" as="geometry" />
        </mxCell>
        <mxCell id="6S-SjZewDLx2lpDAVwIO-69" value="&lt;font style=&quot;font-size: 12px;&quot;&gt;生成大模型response&lt;/font&gt;" style="edgeLabel;html=1;align=center;verticalAlign=middle;resizable=0;points=[];" vertex="1" connectable="0" parent="6S-SjZewDLx2lpDAVwIO-68">
          <mxGeometry x="-0.1333" y="-2" relative="1" as="geometry">
            <mxPoint as="offset" />
          </mxGeometry>
        </mxCell>
        <object label="&lt;div&gt;&lt;font color=&quot;#26c000&quot;&gt;[{&lt;/font&gt;&lt;/div&gt;&lt;div&gt;&lt;font color=&quot;#26c000&quot;&gt;&lt;span style=&quot;white-space: normal;&quot;&gt;&lt;span style=&quot;white-space:pre&quot;&gt;&#x9;&lt;/span&gt;&#39;role&#39;: &#39;system&#39;,&lt;/span&gt;&lt;/font&gt;&lt;/div&gt;&lt;div&gt;&lt;font color=&quot;#26c000&quot;&gt;&lt;span style=&quot;white-space: normal;&quot;&gt;&lt;span style=&quot;white-space:pre&quot;&gt;&#x9;&lt;/span&gt;&#39;content&#39;: &#39;The current date is 2024-08-12.&#39;&lt;/span&gt;&lt;/font&gt;&lt;/div&gt;&lt;div&gt;&lt;font color=&quot;#26c000&quot;&gt;}, {&lt;/font&gt;&lt;/div&gt;&lt;div&gt;&lt;font color=&quot;#26c000&quot;&gt;&lt;span style=&quot;white-space: normal;&quot;&gt;&lt;span style=&quot;white-space:pre&quot;&gt;&#x9;&lt;/span&gt;&#39;role&#39;: &#39;system&#39;,&lt;/span&gt;&lt;/font&gt;&lt;/div&gt;&lt;div&gt;&lt;font color=&quot;#26c000&quot;&gt;&lt;span style=&quot;white-space: normal;&quot;&gt;&lt;span style=&quot;white-space:pre&quot;&gt;&#x9;&lt;/span&gt;&#39;content&#39;: &#39;## 人物简介\n你是一个可以调用网络搜索工具的智能助手。请根据&quot;当前问题&quot;，调用搜索工具收集信息并回复问题。你能够调用如下工具:\n[{&quot;name&quot;: &quot;BingBrowser.search&quot;, &quot;description&quot;: &quot;BING search API\\nArgs:\\n&amp;nbsp; &amp;nbsp; query (List[str]): list of search query strings&quot;, &quot;parameters&quot;: [{&quot;name&quot;: &quot;query&quot;, &quot;type&quot;: &quot;STRING&quot;, &quot;description&quot;: &quot;&quot;}], &quot;required&quot;: [&quot;query&quot;], &quot;parameter_description&quot;: &quot;If you call this tool, you must pass arguments in the JSON format {key: value}, where the key is the parameter name.&quot;}, {&quot;name&quot;: &quot;BingBrowser.select&quot;, &quot;description&quot;: &quot;get the detailed content on the selected pages.&quot;, &quot;parameters&quot;: [{&quot;name&quot;: &quot;select_ids&quot;, &quot;type&quot;: &quot;NUMBER&quot;, &quot;description&quot;: &quot;list of index to select. Max number of index to be selected is no more than 4.&quot;}], &quot;required&quot;: [&quot;select_ids&quot;], &quot;parameter_description&quot;: &quot;If you call this tool, you must pass arguments in the JSON format {key: value}, where the key is the parameter name.&quot;}, {&quot;name&quot;: &quot;BingBrowser.open_url&quot;, &quot;description&quot;: &quot;&quot;, &quot;parameters&quot;: [{&quot;name&quot;: &quot;url&quot;, &quot;type&quot;: &quot;STRING&quot;, &quot;description&quot;: &quot;&quot;}], &quot;required&quot;: [&quot;url&quot;], &quot;parameter_description&quot;: &quot;If you call this tool, you must pass arguments in the JSON format {key: value}, where the key is the parameter name.&quot;}]\n## 回复格式\n\n调用工具时，请按照以下格式:\n```\n你的思考过程...&amp;lt;|action_start|&amp;gt;&amp;lt;|plugin|&amp;gt;{&quot;name&quot;: &quot;tool_name&quot;, &quot;parameters&quot;: {&quot;param1&quot;: &quot;value1&quot;}}&amp;lt;|action_end|&amp;gt;\n```\n\n## 要求\n\n- 回答中每个关键点需标注引用的搜索结果来源，以确保信息的可信度。给出索引的形式为`[[int]]`，如果有多个索引，则用多个[[]]表示，如`[[id_1]][[id_2]]`。\n- 基于&quot;当前问题&quot;的搜索结果，撰写详细完备的回复，优先回答&quot;当前问题&quot;。\n\n&#39;,&lt;/span&gt;&lt;/font&gt;&lt;/div&gt;&lt;div&gt;&lt;font color=&quot;#26c000&quot;&gt;&lt;span style=&quot;white-space: normal;&quot;&gt;&lt;span style=&quot;white-space:pre&quot;&gt;&#x9;&lt;/span&gt;&#39;name&#39;: &#39;plugin&#39;&lt;/span&gt;&lt;/font&gt;&lt;/div&gt;&lt;div&gt;&lt;font color=&quot;#26c000&quot;&gt;}, {&lt;/font&gt;&lt;/div&gt;&lt;div&gt;&lt;font color=&quot;#26c000&quot;&gt;&lt;span style=&quot;white-space: normal;&quot;&gt;&lt;span style=&quot;white-space:pre&quot;&gt;&#x9;&lt;/span&gt;&#39;role&#39;: &#39;user&#39;,&lt;/span&gt;&lt;/font&gt;&lt;/div&gt;&lt;div&gt;&lt;font color=&quot;#26c000&quot;&gt;&lt;span style=&quot;white-space: normal;&quot;&gt;&lt;span style=&quot;white-space:pre&quot;&gt;&#x9;&lt;/span&gt;&#39;content&#39;: &#39;## 主问题\n上海天气\n## 当前问题\n上海今天的天气怎么样？\n&#39;&lt;/span&gt;&lt;/font&gt;&lt;/div&gt;&lt;div&gt;&lt;font color=&quot;#26c000&quot;&gt;}]&lt;/font&gt;&lt;/div&gt;" id="6S-SjZewDLx2lpDAVwIO-62">
          <mxCell style="rounded=0;whiteSpace=wrap;html=1;align=left;fillColor=#181818;fontColor=#3e78c0;strokeColor=#3A5431;" vertex="1" parent="6S-SjZewDLx2lpDAVwIO-25">
            <mxGeometry x="74" y="190" width="590" height="380" as="geometry" />
          </mxCell>
        </object>
        <mxCell id="RNOjfNPxnVxLPHalCjSS-54" value="&lt;span style=&quot;font-size: 15px;&quot;&gt;【执行Action】调用BingBrowser.search&lt;/span&gt;&lt;div&gt;&lt;span style=&quot;font-size: 15px;&quot;&gt;准备调用搜索引擎&lt;/span&gt;&lt;/div&gt;" style="whiteSpace=wrap;html=1;fillColor=#d5e8d4;strokeColor=#82b366;" parent="6S-SjZewDLx2lpDAVwIO-25" vertex="1">
          <mxGeometry x="74" y="800" width="590" height="60" as="geometry" />
        </mxCell>
        <object label="&lt;div&gt;&lt;div&gt;&lt;font color=&quot;#a13577&quot;&gt;[{&lt;/font&gt;&lt;/div&gt;&lt;div&gt;&lt;font color=&quot;#a13577&quot;&gt;&lt;span style=&quot;white-space: normal;&quot;&gt;&lt;span style=&quot;white-space:pre&quot;&gt;&#x9;&lt;/span&gt;&#39;type&#39;: &#39;text&#39;,&lt;/span&gt;&lt;/font&gt;&lt;/div&gt;&lt;div&gt;&lt;font color=&quot;#a13577&quot;&gt;&lt;span style=&quot;white-space: normal;&quot;&gt;&lt;span style=&quot;white-space:pre&quot;&gt;&#x9;&lt;/span&gt;&#39;content&#39;: &#39;{&quot;0&quot;: {&quot;url&quot;: &quot;https://weather.com/zh-CN/weather/hourbyhour/l/7f14186934f484d567841e8646abc61b81cce4d88470d519beeb5e115c9b425a&quot;, &quot;summ&quot;: &quot;每小时本地天气预报、天气情况、降水、露点、湿度、大风 - 尽在 Weather.com 和 The Weather Channel\\n每小时本地天气预报、天气情况、降水、露点、湿度、大风 - 尽在 Weather.com 和 The Weather Channel\\n每小时本地天气预报、天气情况、降水、露点、湿度、大风 - 尽在 Weather.com 和 The Weather Channel&quot;, &quot;title&quot;: &quot;上海市每小时天气预报 - The Weather Channel | Weather.com&quot;}, &quot;1&quot;: {&quot;url&quot;: &quot;https://tianqi.moji.com/weather/china/shanghai/shanghai&quot;, &quot;summ&quot;: &quot;上海市今天实况：31度 晴，湿度：72%，北风：0级。白天：39度,多云。 夜间：多云，29度，潮湿闷热，墨迹天气建议您穿着吸湿排汗的夏装，棉麻质地的短打扮是不错的选择。\\n上海市今天实况：29度 小雨，湿度：93%，西南风：1级。白天：39度,小雨。 夜间：多云，29度，潮湿闷热，墨迹天气建议您穿着吸湿排汗的夏装，棉麻质地的短打扮是不错的选择。&quot;, &quot;title&quot;: &quot;【上海市天气】_上海市天气预报_天气查询 - 墨迹天气&quot;}, &quot;2&quot;: {&quot;url&quot;: &quot;https://www.tianqi.com/shanghai/today/&quot;, &quot;summ&quot;: &quot;上海天气网为您提供上海天气预报24小时详情、上海今日天气预报，包括今日实时温度、24小时降水概率、湿度、pm2.5、风向、紫外线强度等，助您放心出行。\\n上海天气网为您提供上海天气预报24小时详情、上海今日天气预报，包括今日实时温度、24小时降水概率、湿度、pm2.5、风向、紫外线强度等，助您放心出行。&quot;, &quot;title&quot;: &quot;【上海今天天气预报】上海天气预报24小时详情_上海天气网&quot;}&lt;/span&gt;&lt;/font&gt;&lt;/div&gt;&lt;div&gt;&lt;font color=&quot;#a13577&quot;&gt;}]&lt;/font&gt;&lt;/div&gt;&lt;/div&gt;" id="RNOjfNPxnVxLPHalCjSS-57">
          <mxCell style="rounded=0;whiteSpace=wrap;html=1;align=left;fillColor=#181818;strokeColor=#3A5431;fontColor=#FF3333;" parent="6S-SjZewDLx2lpDAVwIO-25" vertex="1">
            <mxGeometry x="74" y="860" width="590" height="260" as="geometry" />
          </mxCell>
        </object>
        <mxCell id="RNOjfNPxnVxLPHalCjSS-58" value="调用搜索引擎接口返回的查询结果&lt;div&gt;(为示意缩减了搜索引擎结果)&lt;br&gt;&lt;/div&gt;" style="rounded=0;whiteSpace=wrap;html=1;strokeColor=none;fillColor=none;" parent="6S-SjZewDLx2lpDAVwIO-25" vertex="1">
          <mxGeometry x="375" y="1117" width="185" height="50" as="geometry" />
        </mxCell>
        <mxCell id="RNOjfNPxnVxLPHalCjSS-55" value="" style="endArrow=classic;html=1;rounded=0;entryX=0.5;entryY=0;entryDx=0;entryDy=0;exitX=0.5;exitY=1;exitDx=0;exitDy=0;" parent="6S-SjZewDLx2lpDAVwIO-25" source="RNOjfNPxnVxLPHalCjSS-51" target="RNOjfNPxnVxLPHalCjSS-54" edge="1">
          <mxGeometry width="50" height="50" relative="1" as="geometry">
            <mxPoint x="360" y="546" as="sourcePoint" />
            <mxPoint x="-100" y="366" as="targetPoint" />
          </mxGeometry>
        </mxCell>
        <mxCell id="RNOjfNPxnVxLPHalCjSS-56" value="&lt;font style=&quot;font-size: 12px;&quot;&gt;执行返回的代码块 &amp;lt;|plugin|&amp;gt;&lt;/font&gt;" style="edgeLabel;html=1;align=center;verticalAlign=middle;resizable=0;points=[];" parent="RNOjfNPxnVxLPHalCjSS-55" vertex="1" connectable="0">
          <mxGeometry x="0.0005" y="-3" relative="1" as="geometry">
            <mxPoint x="4" y="-1" as="offset" />
          </mxGeometry>
        </mxCell>
        <object label="&lt;div&gt;为了获取上海今天的天气信息，需要明确查询的具体内容，包括日期和地点。由于问题中已经明确提到“今天”，因此查询应包含“今天”和“上海”这两个关键词。此外，为了确保查询结果的准确性和全面性，可以添加一些具体的天气信息，如温度、湿度、风力等。&amp;lt;|action_start|&amp;gt;&amp;lt;|plugin|&amp;gt;&lt;/div&gt;&lt;div&gt;{&quot;name&quot;: &quot;BingBrowser.search&quot;, &quot;parameters&quot;: {&quot;query&quot;: [&quot;上海今天天气&quot;, &quot;上海今天气温&quot;, &quot;上海今天湿度&quot;, &quot;上海今天风力&quot;]}}&lt;/div&gt;" id="RNOjfNPxnVxLPHalCjSS-51">
          <mxCell style="rounded=0;whiteSpace=wrap;html=1;align=left;fillColor=#181818;strokeColor=#3A5431;fontColor=#FF3333;" parent="6S-SjZewDLx2lpDAVwIO-25" vertex="1">
            <mxGeometry x="74" y="630" width="590" height="118.55" as="geometry" />
          </mxCell>
        </object>
        <mxCell id="6S-SjZewDLx2lpDAVwIO-35" value="第 2 次调用大模型" style="swimlane;whiteSpace=wrap;html=1;fillColor=#f8cecc;strokeColor=#b85450;" vertex="1" parent="RNOjfNPxnVxLPHalCjSS-48">
          <mxGeometry x="10" y="1296" width="720" height="1494" as="geometry" />
        </mxCell>
        <mxCell id="RNOjfNPxnVxLPHalCjSS-59" value="&lt;span style=&quot;font-size: 15px;&quot;&gt;【2】循环第二次调用大模型&lt;/span&gt;&lt;div&gt;&lt;span style=&quot;font-size: 15px;&quot;&gt;把搜索结果放到对话历史中，循环调用stream_chat&lt;/span&gt;&lt;/div&gt;" style="whiteSpace=wrap;html=1;fillColor=#d5e8d4;strokeColor=#82b366;" parent="6S-SjZewDLx2lpDAVwIO-35" vertex="1">
          <mxGeometry x="70" y="31" width="590" height="60" as="geometry" />
        </mxCell>
        <mxCell id="QWpg3al_tcsH8TkOB3aV-5" style="edgeStyle=orthogonalEdgeStyle;rounded=0;orthogonalLoop=1;jettySize=auto;html=1;exitX=0.5;exitY=1;exitDx=0;exitDy=0;" parent="6S-SjZewDLx2lpDAVwIO-35" source="RNOjfNPxnVxLPHalCjSS-61" target="QWpg3al_tcsH8TkOB3aV-1" edge="1">
          <mxGeometry relative="1" as="geometry" />
        </mxCell>
        <object label="&lt;div&gt;&lt;div&gt;&lt;font color=&quot;#ff0000&quot;&gt;为了回答“上海今天的天气怎么样？”这个问题，我需要找到提供今天上海天气情况的网页。以下是我的分析和选择理由：&lt;/font&gt;&lt;/div&gt;&lt;div&gt;&lt;font color=&quot;#ff0000&quot;&gt;&lt;br&gt;&lt;/font&gt;&lt;/div&gt;&lt;div&gt;&lt;font color=&quot;#ff0000&quot;&gt;1. **网页0**：提供了每小时本地天气预报，但没有明确指出是今天的天气情况。&lt;/font&gt;&lt;/div&gt;&lt;div&gt;&lt;font color=&quot;#ff0000&quot;&gt;2. **网页1**：提供了今天上海的实况天气，包括温度、湿度、风力等信息，非常符合需求。&lt;/font&gt;&lt;/div&gt;&lt;div&gt;&lt;font color=&quot;#ff0000&quot;&gt;3. **网页2**：提供了今天上海的天气预报详情，包括实时温度、降水概率、湿度等，非常详细。&lt;/font&gt;&lt;/div&gt;&lt;div&gt;&lt;font color=&quot;#ff0000&quot;&gt;4. **网页3**：提供了今天的天气预报和天气提示，但没有详细说明今天的具体天气情况。&lt;/font&gt;&lt;/div&gt;&lt;div&gt;&lt;font color=&quot;#ff0000&quot;&gt;5. **网页4**：提供了上海天气预报，但没有明确指出是今天的天气情况。&lt;/font&gt;&lt;/div&gt;&lt;div&gt;&lt;font color=&quot;#ff0000&quot;&gt;6. **网页5**：提供了今天白天和夜间的天气预报，但没有详细说明今天的具体天气情况。&lt;/font&gt;&lt;/div&gt;&lt;div&gt;&lt;font color=&quot;#ff0000&quot;&gt;7. **网页6**：提供了今天上海的逐小时天气预报，非常详细。&lt;/font&gt;&lt;/div&gt;&lt;div&gt;&lt;font color=&quot;#ff0000&quot;&gt;8. **网页7**：提供了今天的天气实况和未来天气预报，非常详细。&lt;/font&gt;&lt;/div&gt;&lt;div&gt;&lt;font color=&quot;#ff0000&quot;&gt;9. **网页8**：提供了全球天气公报，与上海今天的天气无关。&lt;/font&gt;&lt;/div&gt;&lt;div&gt;&lt;font color=&quot;#ff0000&quot;&gt;10. **网页9**：提供了实时风图，与上海今天的天气无关。&lt;/font&gt;&lt;/div&gt;&lt;div&gt;&lt;font color=&quot;#ff0000&quot;&gt;11. **网页10**：提供了上海天气预报，但没有明确指出是今天的天气情况。&lt;/font&gt;&lt;/div&gt;&lt;div&gt;&lt;font color=&quot;#ff0000&quot;&gt;12. **网页11**：提供了每小时天气预报，但没有明确指出是今天的天气情况。&lt;/font&gt;&lt;/div&gt;&lt;div&gt;&lt;font color=&quot;#ff0000&quot;&gt;13. **网页12**：提供了三日天气预报，与今天的天气无关。&lt;/font&gt;&lt;/div&gt;&lt;div&gt;&lt;font color=&quot;#ff0000&quot;&gt;14. **网页13**：提供了上海天气预报，但没有明确指出是今天的天气情况。&lt;/font&gt;&lt;/div&gt;&lt;div&gt;&lt;font color=&quot;#ff0000&quot;&gt;&lt;br&gt;&lt;/font&gt;&lt;/div&gt;&lt;div&gt;&lt;font color=&quot;#ff0000&quot;&gt;综合考虑，网页1、网页2、网页6和网页7提供了今天上海的天气实况和预报，信息最为详细和相关。因此，我选择这些网页进行进一步阅读。&amp;lt;|action_start|&amp;gt;&amp;lt;|plugin|&amp;gt;&lt;/font&gt;&lt;/div&gt;&lt;div&gt;&lt;font color=&quot;#ff0000&quot;&gt;{&quot;name&quot;: &quot;BingBrowser.select&quot;, &quot;parameters&quot;: {&quot;select_ids&quot;: [1, 2, 6, 7]}}&lt;/font&gt;&lt;/div&gt;&lt;/div&gt;" id="RNOjfNPxnVxLPHalCjSS-61">
          <mxCell style="rounded=0;whiteSpace=wrap;html=1;align=left;fillColor=#181818;strokeColor=#3A5431;fontColor=#FF3333;" parent="6S-SjZewDLx2lpDAVwIO-35" vertex="1">
            <mxGeometry x="70" y="780" width="590" height="320" as="geometry" />
          </mxCell>
        </object>
        <mxCell id="wb-n8OnqzStXj1Gh0D1q-3" value="response" style="rounded=0;whiteSpace=wrap;html=1;strokeColor=none;fillColor=none;" parent="6S-SjZewDLx2lpDAVwIO-35" vertex="1">
          <mxGeometry x="360" y="1108" width="100" height="10" as="geometry" />
        </mxCell>
        <mxCell id="QWpg3al_tcsH8TkOB3aV-1" value="&lt;span style=&quot;font-size: 15px;&quot;&gt;【执行Action】 调用BingBrowser.select&lt;/span&gt;&lt;div&gt;&lt;span style=&quot;font-size: 15px;&quot;&gt;筛选可能包含答案的网页内容&lt;/span&gt;&lt;/div&gt;" style="whiteSpace=wrap;html=1;fillColor=#d5e8d4;strokeColor=#82b366;" parent="6S-SjZewDLx2lpDAVwIO-35" vertex="1">
          <mxGeometry x="70" y="1124" width="590" height="60" as="geometry" />
        </mxCell>
        <object label="&lt;div&gt;&lt;div&gt;&lt;font color=&quot;#a13577&quot;&gt;[{&lt;/font&gt;&lt;/div&gt;&lt;div&gt;&lt;font color=&quot;#a13577&quot;&gt;&lt;span style=&quot;white-space: normal;&quot;&gt;&lt;span style=&quot;white-space:pre&quot;&gt;&#x9;&lt;/span&gt;&#39;type&#39;: &#39;text&#39;,&lt;/span&gt;&lt;/font&gt;&lt;/div&gt;&lt;div&gt;&lt;font color=&quot;#a13577&quot;&gt;&lt;span style=&quot;white-space: normal;&quot;&gt;&lt;span style=&quot;white-space:pre&quot;&gt;&#x9;&lt;/span&gt;&#39;content&#39;: &#39;{&quot;7&quot;: {&quot;url&quot;: &quot;http://sh.cma.gov.cn/sh/tqyb/jrtq/&quot;, &quot;title&quot;: &quot;今日天气-上海市气象局&quot;, &quot;content&quot;: &quot;\\n今日天气-上海市气象局\\n网站地图\\n&amp;nbsp; &amp;nbsp; &amp;nbsp; &amp;nbsp; | 联系我们|\\n&amp;nbsp; &amp;nbsp; &amp;nbsp; &amp;nbsp; &amp;nbsp; &amp;nbsp; 加入收藏\\n&amp;nbsp; &amp;nbsp; &amp;nbsp; &amp;nbsp; \\nToggle navigation\\n首页\\n部门概况\\n新闻动态\\n政务公开\\n通知公告\\n气象服务\\n一网通办\\n互动交流\\n气象科普\\n各区气象\\n气象要闻\\n基层动态\\nCMA信息\\n应急减灾\\n党建文化\\n政府信息公开指南\\n政府信息公开制度\\n法定主动公开内容\\n依申请公开\\n政府信息公开年报\\n气象报告\\n今日天气\\n灾害天气预警\\n空气质量预报\\n五日天气预报\\n天气实况\\n卫星云图\\n雷达回波图\\n生活气象指数\\n高温情况\\n局长信箱\\n信访信箱\\n来信回复\\n气象视频\\n科技信息\\n气候变化\\n浦东气象\\n宝山气象\\n闵行气象\\n嘉定气象\\n金山气象\\n松江气象\\n青浦气象\\n奉贤气象\\n崇明气象\\n 当前位置：\\n&amp;nbsp; &amp;nbsp; &amp;nbsp; &amp;nbsp; &amp;nbsp; &amp;nbsp; &amp;nbsp; &amp;nbsp; &amp;nbsp; &amp;nbsp; 首页&amp;gt;上海市气象局&amp;gt;气象服务&amp;gt;今日天气\\n灾害天气预警\\n上海今日天气\\n上海中心气象台 \\n&amp;gt;&amp;gt;返回\\n&amp;nbsp; &amp;nbsp; &amp;nbsp; &amp;nbsp; &amp;nbsp; &amp;nbsp; &amp;nbsp; &amp;nbsp; 栏目导航\\n&amp;nbsp; &amp;nbsp; &amp;nbsp; &amp;nbsp; &amp;nbsp; &amp;nbsp; \\n气象报告\\n今日天气\\n灾害天气预警\\n空气质量预报\\n五日天气预报\\n天气实况\\n卫星云图\\n雷达回波图\\n生活气象指数\\n高温情况\\n天气实况\\n徐家汇\\n浦东\\n宝山\\n闵行\\n嘉定\\n金山\\n松江\\n青浦\\n奉贤\\n崇明\\n卫星云图\\n雷达回波图\\n&amp;nbsp; &amp;nbsp; &amp;nbsp; &amp;nbsp; &amp;nbsp; &amp;nbsp; &amp;nbsp; &amp;nbsp; &amp;nbsp; &amp;nbsp; &amp;nbsp; &amp;nbsp; &amp;nbsp; &amp;nbsp; 上海市生活气象指数\\n&amp;nbsp; &amp;nbsp; &amp;nbsp; &amp;nbsp; &amp;nbsp; &amp;nbsp; &amp;nbsp; &amp;nbsp; &amp;nbsp; &amp;nbsp; &amp;nbsp; &amp;nbsp; \\n&amp;nbsp; &amp;nbsp; &amp;nbsp; &amp;nbsp; &amp;nbsp; &amp;nbsp; &amp;nbsp; &amp;nbsp; &amp;nbsp; &amp;nbsp; &amp;nbsp; &amp;nbsp; &amp;nbsp; &amp;nbsp; &amp;nbsp; &amp;nbsp; &amp;nbsp; &amp;nbsp; &amp;nbsp; &amp;nbsp; 今天\\n&amp;nbsp; &amp;nbsp; &amp;nbsp; &amp;nbsp; &amp;nbsp; &amp;nbsp; &amp;nbsp; &amp;nbsp; &amp;nbsp; &amp;nbsp; &amp;nbsp; &amp;nbsp; &amp;nbsp; &amp;nbsp; &amp;nbsp; &amp;nbsp; &amp;nbsp; &amp;nbsp; \\n&amp;nbsp; &amp;nbsp; &amp;nbsp; &amp;nbsp; &amp;nbsp; &amp;nbsp; &amp;nbsp; &amp;nbsp; &amp;nbsp; &amp;nbsp; &amp;nbsp; &amp;nbsp; &amp;nbsp; &amp;nbsp; &amp;nbsp; &amp;nbsp; &amp;nbsp; &amp;nbsp; &amp;nbsp; &amp;nbsp; 明天\\n&amp;nbsp; &amp;nbsp; &amp;nbsp; &amp;nbsp; &amp;nbsp; &amp;nbsp; &amp;nbsp; &amp;nbsp; &amp;nbsp; &amp;nbsp; &amp;nbsp; &amp;nbsp; &amp;nbsp; &amp;nbsp; &amp;nbsp; &amp;nbsp; &amp;nbsp; &amp;nbsp; \\n手机版|电脑版\\n上海市气象局官方网站\\n&amp;nbsp; &amp;nbsp; &amp;nbsp; &amp;nbsp; &amp;nbsp; &amp;nbsp; 主办:上海市气象局办公室地址:上海市徐汇区蒲西路166号版权所有：上海市气象局\\n&amp;nbsp; &amp;nbsp; &amp;nbsp; &amp;nbsp; &amp;nbsp; &amp;nbsp; 电话:021-54896000邮政编码：200030\\n&amp;nbsp; &amp;nbsp; &amp;nbsp; &amp;nbsp; &amp;nbsp; &amp;nbsp; ICP备案号：京ICP备05004897号Copyright1997-2019\\n&amp;nbsp; &amp;nbsp; &amp;nbsp; &amp;nbsp; &amp;nbsp; &amp;nbsp; 网站标识码：bm54090001沪公安机关备案号31010402004850\\n&amp;nbsp; &amp;nbsp; &amp;nbsp; &amp;nbsp; &amp;nbsp; \\n&quot;}}&#39;&lt;/span&gt;&lt;/font&gt;&lt;/div&gt;&lt;div&gt;&lt;font color=&quot;#a13577&quot;&gt;}]&lt;/font&gt;&lt;/div&gt;&lt;/div&gt;" id="QWpg3al_tcsH8TkOB3aV-2">
          <mxCell style="rounded=0;whiteSpace=wrap;html=1;align=left;fillColor=#181818;strokeColor=#3A5431;fontColor=#FF3333;" parent="6S-SjZewDLx2lpDAVwIO-35" vertex="1">
            <mxGeometry x="70" y="1184" width="590" height="276" as="geometry" />
          </mxCell>
        </object>
        <mxCell id="6S-SjZewDLx2lpDAVwIO-71" style="edgeStyle=orthogonalEdgeStyle;rounded=0;orthogonalLoop=1;jettySize=auto;html=1;exitX=0.5;exitY=1;exitDx=0;exitDy=0;" edge="1" parent="6S-SjZewDLx2lpDAVwIO-35" source="6S-SjZewDLx2lpDAVwIO-70" target="RNOjfNPxnVxLPHalCjSS-61">
          <mxGeometry relative="1" as="geometry" />
        </mxCell>
        <object label="&lt;div&gt;&lt;font color=&quot;#26c000&quot;&gt;[{&lt;/font&gt;&lt;/div&gt;&lt;div&gt;&lt;font color=&quot;#26c000&quot;&gt;&lt;span style=&quot;white-space: normal;&quot;&gt;&lt;span style=&quot;white-space:pre&quot;&gt;&#x9;&lt;/span&gt;&#39;role&#39;: &#39;system&#39;,&lt;/span&gt;&lt;/font&gt;&lt;/div&gt;&lt;div&gt;&lt;font color=&quot;#26c000&quot;&gt;&lt;span style=&quot;white-space: normal;&quot;&gt;&lt;span style=&quot;white-space:pre&quot;&gt;&#x9;&lt;/span&gt;&#39;content&#39;: &#39;The current date is 2024-08-12.&#39;&lt;/span&gt;&lt;/font&gt;&lt;/div&gt;&lt;div&gt;&lt;font color=&quot;#26c000&quot;&gt;}, {&lt;/font&gt;&lt;/div&gt;&lt;div&gt;&lt;font color=&quot;#26c000&quot;&gt;&lt;span style=&quot;white-space: normal;&quot;&gt;&lt;span style=&quot;white-space:pre&quot;&gt;&#x9;&lt;/span&gt;&#39;role&#39;: &#39;system&#39;,&lt;/span&gt;&lt;/font&gt;&lt;/div&gt;&lt;div&gt;&lt;font color=&quot;#26c000&quot;&gt;&lt;span style=&quot;white-space: normal;&quot;&gt;&lt;span style=&quot;white-space:pre&quot;&gt;&#x9;&lt;/span&gt;&#39;content&#39;: &#39;## 人物简介\n你是一个可以调用网络搜索工具的智能助手。请根据&quot;当前问题&quot;，调用搜索工具收集信息并回复问题。你能够调用如下工具:\n[{&quot;name&quot;: &quot;BingBrowser.search&quot;, &quot;description&quot;: &quot;BING search API\\nArgs:\\n&amp;nbsp; &amp;nbsp; query (List[str]): list of search query strings&quot;, &quot;parameters&quot;: [{&quot;name&quot;: &quot;query&quot;, &quot;type&quot;: &quot;STRING&quot;, &quot;description&quot;: &quot;&quot;}], &quot;required&quot;: [&quot;query&quot;], &quot;parameter_description&quot;: &quot;If you call this tool, you must pass arguments in the JSON format {key: value}, where the key is the parameter name.&quot;}, {&quot;name&quot;: &quot;BingBrowser.select&quot;, &quot;description&quot;: &quot;get the detailed content on the selected pages.&quot;, &quot;parameters&quot;: [{&quot;name&quot;: &quot;select_ids&quot;, &quot;type&quot;: &quot;NUMBER&quot;, &quot;description&quot;: &quot;list of index to select. Max number of index to be selected is no more than 4.&quot;}], &quot;required&quot;: [&quot;select_ids&quot;], &quot;parameter_description&quot;: &quot;If you call this tool, you must pass arguments in the JSON format {key: value}, where the key is the parameter name.&quot;}, {&quot;name&quot;: &quot;BingBrowser.open_url&quot;, &quot;description&quot;: &quot;&quot;, &quot;parameters&quot;: [{&quot;name&quot;: &quot;url&quot;, &quot;type&quot;: &quot;STRING&quot;, &quot;description&quot;: &quot;&quot;}], &quot;required&quot;: [&quot;url&quot;], &quot;parameter_description&quot;: &quot;If you call this tool, you must pass arguments in the JSON format {key: value}, where the key is the parameter name.&quot;}]\n## 回复格式\n\n调用工具时，请按照以下格式:\n```\n你的思考过程...&amp;lt;|action_start|&amp;gt;&amp;lt;|plugin|&amp;gt;{&quot;name&quot;: &quot;tool_name&quot;, &quot;parameters&quot;: {&quot;param1&quot;: &quot;value1&quot;}}&amp;lt;|action_end|&amp;gt;\n```\n\n## 要求\n\n- 回答中每个关键点需标注引用的搜索结果来源，以确保信息的可信度。给出索引的形式为`[[int]]`，如果有多个索引，则用多个[[]]表示，如`[[id_1]][[id_2]]`。\n- 基于&quot;当前问题&quot;的搜索结果，撰写详细完备的回复，优先回答&quot;当前问题&quot;。\n\n&#39;,&lt;/span&gt;&lt;/font&gt;&lt;/div&gt;&lt;div&gt;&lt;font color=&quot;#26c000&quot;&gt;&lt;span style=&quot;white-space: normal;&quot;&gt;&lt;span style=&quot;white-space:pre&quot;&gt;&#x9;&lt;/span&gt;&#39;name&#39;: &#39;plugin&#39;&lt;/span&gt;&lt;/font&gt;&lt;/div&gt;&lt;div&gt;&lt;font color=&quot;#26c000&quot;&gt;}, {&lt;/font&gt;&lt;/div&gt;&lt;div&gt;&lt;font color=&quot;#26c000&quot;&gt;&lt;span style=&quot;white-space: normal;&quot;&gt;&lt;span style=&quot;white-space:pre&quot;&gt;&#x9;&lt;/span&gt;&#39;role&#39;: &#39;user&#39;,&lt;/span&gt;&lt;/font&gt;&lt;/div&gt;&lt;div&gt;&lt;font color=&quot;#26c000&quot;&gt;&lt;span style=&quot;white-space: normal;&quot;&gt;&lt;span style=&quot;white-space:pre&quot;&gt;&#x9;&lt;/span&gt;&#39;content&#39;: &#39;## 主问题\n上海天气\n## 当前问题\n上海今天的天气怎么样？\n&#39;&lt;/span&gt;&lt;/font&gt;&lt;/div&gt;&lt;div&gt;&lt;font color=&quot;#26c000&quot;&gt;}, {&lt;/font&gt;&lt;/div&gt;&lt;div&gt;&lt;font color=&quot;#26c000&quot;&gt;&lt;span style=&quot;white-space: normal;&quot;&gt;&lt;span style=&quot;white-space:pre&quot;&gt;&#x9;&lt;/span&gt;&#39;role&#39;: &#39;assistant&#39;,&lt;/span&gt;&lt;/font&gt;&lt;/div&gt;&lt;div&gt;&lt;font color=&quot;#26c000&quot;&gt;&lt;span style=&quot;white-space: pre;&quot;&gt;&#x9;&lt;/span&gt;&#39;content&#39;: &#39;为了获取上海今天的天气信息，需要明确查询的具体内容，包括日期和地点。由于问题中已经明确提到“今天”，因此查询应包含“今天”和“上海”这两个关键词。此外，为了确保查询结果的准确性和全面性，可以添加一些具体的天气信息，如温度、湿度、风力等。&amp;lt;|action_start|&amp;gt;&amp;lt;|plugin|&amp;gt;\n{&quot;name&quot;: &quot;BingBrowser.search&quot;, &quot;parameters&quot;: {&quot;query&quot;: [&quot;上海今天天气&quot;, &quot;上海今天气温&quot;, &quot;上海今天湿度&quot;, &quot;上海今天风力&quot;]}}&amp;lt;|action_end|&amp;gt;\n&#39;&lt;/font&gt;&lt;/div&gt;&lt;div&gt;&lt;font color=&quot;#26c000&quot;&gt;}, {&lt;/font&gt;&lt;/div&gt;&lt;div&gt;&lt;font color=&quot;#26c000&quot;&gt;&lt;span style=&quot;white-space: normal;&quot;&gt;&lt;span style=&quot;white-space:pre&quot;&gt;&#x9;&lt;/span&gt;&#39;role&#39;: &#39;environment&#39;,&lt;/span&gt;&lt;/font&gt;&lt;/div&gt;&lt;div&gt;&lt;font color=&quot;#26c000&quot;&gt;&lt;span style=&quot;white-space: normal;&quot;&gt;&lt;span style=&quot;white-space:pre&quot;&gt;&#x9;&lt;/span&gt;&#39;content&#39;: &#39;{&quot;0&quot;: {&quot;url&quot;: &quot;https://weather.com/zh-CN/weather/hourbyhour/l/7f14186934f484d567841e8646abc61b81cce4d88470d519beeb5e115c9b425a&quot;, &quot;summ&quot;: &quot;每小时本地天气预报、天气情况、降水、露点、湿度、大风 - 尽在 Weather.com 和 The Weather Channel\\n每小时本地天气预报、天气情况、降水、露点、湿度、大风 - 尽在 Weather.com 和 The Weather Channel\\n每小时本地天气预报、天气情况、降水、露点、湿度、大风 - 尽在 Weather.com 和 The Weather Channel&quot;, &quot;title&quot;: &quot;上海市每小时天气预报 - The Weather Channel | Weather.com&quot;}}&#39;,&lt;/span&gt;&lt;/font&gt;&lt;/div&gt;&lt;div&gt;&lt;font color=&quot;#26c000&quot;&gt;&lt;span style=&quot;white-space: normal;&quot;&gt;&lt;span style=&quot;white-space:pre&quot;&gt;&#x9;&lt;/span&gt;&#39;name&#39;: &#39;plugin&#39;&lt;/span&gt;&lt;/font&gt;&lt;/div&gt;&lt;div&gt;&lt;font color=&quot;#26c000&quot;&gt;}]&lt;/font&gt;&lt;/div&gt;" id="6S-SjZewDLx2lpDAVwIO-70">
          <mxCell style="rounded=0;whiteSpace=wrap;html=1;align=left;fillColor=#181818;fontColor=#3e78c0;strokeColor=#3A5431;" vertex="1" parent="6S-SjZewDLx2lpDAVwIO-35">
            <mxGeometry x="70" y="91" width="590" height="646" as="geometry" />
          </mxCell>
        </object>
        <mxCell id="6S-SjZewDLx2lpDAVwIO-73" value="prompt组装(为示意缩减了搜索引擎结果)&lt;div&gt;-&amp;gt; 生成大模型response&lt;/div&gt;" style="rounded=0;whiteSpace=wrap;html=1;strokeColor=none;fillColor=none;align=left;" vertex="1" parent="6S-SjZewDLx2lpDAVwIO-35">
          <mxGeometry x="377" y="741" width="242" height="33" as="geometry" />
        </mxCell>
        <mxCell id="QWpg3al_tcsH8TkOB3aV-7" value="执行action返回的结果&lt;div&gt;(为示意缩减了结果)&lt;br&gt;&lt;/div&gt;" style="rounded=0;whiteSpace=wrap;html=1;strokeColor=none;fillColor=none;" parent="6S-SjZewDLx2lpDAVwIO-35" vertex="1">
          <mxGeometry x="360" y="1460" width="170" height="31" as="geometry" />
        </mxCell>
        <mxCell id="6S-SjZewDLx2lpDAVwIO-36" value="第 3 次调用大模型" style="swimlane;whiteSpace=wrap;html=1;fillColor=#f8cecc;strokeColor=#b85450;" vertex="1" parent="RNOjfNPxnVxLPHalCjSS-48">
          <mxGeometry x="10" y="2810" width="720" height="1660" as="geometry" />
        </mxCell>
        <mxCell id="QWpg3al_tcsH8TkOB3aV-3" value="&lt;span style=&quot;font-size: 15px;&quot;&gt;【3】循环第三次次调用大模型&lt;/span&gt;&lt;div&gt;&lt;span style=&quot;font-size: 15px;&quot;&gt;把筛选后的搜索结果放到对话历史中，循环调用stream_chat&lt;/span&gt;&lt;/div&gt;" style="whiteSpace=wrap;html=1;fillColor=#d5e8d4;strokeColor=#82b366;" parent="6S-SjZewDLx2lpDAVwIO-36" vertex="1">
          <mxGeometry x="70" y="55" width="590" height="60" as="geometry" />
        </mxCell>
        <object label="&lt;div&gt;&lt;font color=&quot;#ff0000&quot;&gt;今天上海的天气情况如下：&lt;/font&gt;&lt;/div&gt;&lt;div&gt;&lt;font color=&quot;#ff0000&quot;&gt;&lt;br&gt;&lt;/font&gt;&lt;/div&gt;&lt;div&gt;&lt;font color=&quot;#ff0000&quot;&gt;1. **温度**：&lt;/font&gt;&lt;/div&gt;&lt;div&gt;&lt;font color=&quot;#ff0000&quot;&gt;&amp;nbsp; &amp;nbsp;- 白天温度约为39°C，夜间温度约为29°C[[1]]。&lt;/font&gt;&lt;/div&gt;&lt;div&gt;&lt;font color=&quot;#ff0000&quot;&gt;&amp;nbsp; &amp;nbsp;- 最高温度预计达到39°C，最低温度为29°C[[2]]。&lt;/font&gt;&lt;/div&gt;&lt;div&gt;&lt;font color=&quot;#ff0000&quot;&gt;&lt;br&gt;&lt;/font&gt;&lt;/div&gt;&lt;div&gt;&lt;font color=&quot;#ff0000&quot;&gt;2. **湿度**：&lt;/font&gt;&lt;/div&gt;&lt;div&gt;&lt;font color=&quot;#ff0000&quot;&gt;&amp;nbsp; &amp;nbsp;- 湿度较高，全天湿度在69%至93%之间[[1]][[3]]。&lt;/font&gt;&lt;/div&gt;&lt;div&gt;&lt;font color=&quot;#ff0000&quot;&gt;&lt;br&gt;&lt;/font&gt;&lt;/div&gt;&lt;div&gt;&lt;font color=&quot;#ff0000&quot;&gt;3. **降水**：&lt;/font&gt;&lt;/div&gt;&lt;div&gt;&lt;font color=&quot;#ff0000&quot;&gt;&amp;nbsp; &amp;nbsp;- 今天有雨，全天有小雨转中雨的情况[[6]]。&lt;/font&gt;&lt;/div&gt;&lt;div&gt;&lt;font color=&quot;#ff0000&quot;&gt;&lt;br&gt;&lt;/font&gt;&lt;/div&gt;&lt;div&gt;&lt;font color=&quot;#ff0000&quot;&gt;4. **风力**：&lt;/font&gt;&lt;/div&gt;&lt;div&gt;&lt;font color=&quot;#ff0000&quot;&gt;&amp;nbsp; &amp;nbsp;- 风力较弱，全天风力在1级左右[[1]][[3]]。&lt;/font&gt;&lt;/div&gt;&lt;div&gt;&lt;font color=&quot;#ff0000&quot;&gt;&lt;br&gt;&lt;/font&gt;&lt;/div&gt;&lt;div&gt;&lt;font color=&quot;#ff0000&quot;&gt;5. **空气质量**：&lt;/font&gt;&lt;/div&gt;&lt;div&gt;&lt;font color=&quot;#ff0000&quot;&gt;&amp;nbsp; &amp;nbsp;- 空气质量状况为轻度污染[[1]]。&lt;/font&gt;&lt;/div&gt;&lt;div&gt;&lt;font color=&quot;#ff0000&quot;&gt;&lt;br&gt;&lt;/font&gt;&lt;/div&gt;&lt;div&gt;&lt;font color=&quot;#ff0000&quot;&gt;6. **紫外线强度**：&lt;/font&gt;&lt;/div&gt;&lt;div&gt;&lt;font color=&quot;#ff0000&quot;&gt;&amp;nbsp; &amp;nbsp;- 紫外线强度较高，外出时需注意防晒[[1]]。&lt;/font&gt;&lt;/div&gt;&lt;div&gt;&lt;font color=&quot;#ff0000&quot;&gt;&lt;br&gt;&lt;/font&gt;&lt;/div&gt;&lt;div&gt;&lt;font color=&quot;#ff0000&quot;&gt;综上所述，今天上海的天气较为炎热潮湿，有持续的小雨，空气质量一般，紫外线强度较高。建议市民在出门时穿着轻薄透气的衣物，并注意防晒和保湿。&lt;/font&gt;&lt;/div&gt;" id="QWpg3al_tcsH8TkOB3aV-4">
          <mxCell style="rounded=0;whiteSpace=wrap;html=1;align=left;fillColor=#181818;strokeColor=#3A5431;fontColor=#FF3333;" parent="6S-SjZewDLx2lpDAVwIO-36" vertex="1">
            <mxGeometry x="70" y="1282" width="590" height="350" as="geometry" />
          </mxCell>
        </object>
        <mxCell id="6S-SjZewDLx2lpDAVwIO-81" style="edgeStyle=orthogonalEdgeStyle;rounded=0;orthogonalLoop=1;jettySize=auto;html=1;exitX=0.5;exitY=1;exitDx=0;exitDy=0;" edge="1" parent="6S-SjZewDLx2lpDAVwIO-36" source="6S-SjZewDLx2lpDAVwIO-77" target="QWpg3al_tcsH8TkOB3aV-4">
          <mxGeometry relative="1" as="geometry">
            <mxPoint x="365" y="1270" as="sourcePoint" />
          </mxGeometry>
        </mxCell>
        <object label="&lt;div&gt;&lt;font color=&quot;#26c000&quot;&gt;[{&lt;/font&gt;&lt;/div&gt;&lt;div&gt;&lt;font color=&quot;#26c000&quot;&gt;&lt;span style=&quot;white-space: normal;&quot;&gt;&lt;span style=&quot;white-space:pre&quot;&gt;&#x9;&lt;/span&gt;&#39;role&#39;: &#39;system&#39;,&lt;/span&gt;&lt;/font&gt;&lt;/div&gt;&lt;div&gt;&lt;font color=&quot;#26c000&quot;&gt;&lt;span style=&quot;white-space: normal;&quot;&gt;&lt;span style=&quot;white-space:pre&quot;&gt;&#x9;&lt;/span&gt;&#39;content&#39;: &#39;The current date is 2024-08-12.&#39;&lt;/span&gt;&lt;/font&gt;&lt;/div&gt;&lt;div&gt;&lt;font color=&quot;#26c000&quot;&gt;}, {&lt;/font&gt;&lt;/div&gt;&lt;div&gt;&lt;font color=&quot;#26c000&quot;&gt;&lt;span style=&quot;white-space: normal;&quot;&gt;&lt;span style=&quot;white-space:pre&quot;&gt;&#x9;&lt;/span&gt;&#39;role&#39;: &#39;system&#39;,&lt;/span&gt;&lt;/font&gt;&lt;/div&gt;&lt;div&gt;&lt;font color=&quot;#26c000&quot;&gt;&lt;span style=&quot;white-space: normal;&quot;&gt;&lt;span style=&quot;white-space:pre&quot;&gt;&#x9;&lt;/span&gt;&#39;content&#39;: &#39;## 人物简介\n你是一个可以调用网络搜索工具的智能助手。请根据&quot;当前问题&quot;，调用搜索工具收集信息并回复问题。你能够调用如下工具:\n[{&quot;name&quot;: &quot;BingBrowser.search&quot;, &quot;description&quot;: &quot;BING search API\\nArgs:\\n&amp;nbsp; &amp;nbsp; query (List[str]): list of search query strings&quot;, &quot;parameters&quot;: [{&quot;name&quot;: &quot;query&quot;, &quot;type&quot;: &quot;STRING&quot;, &quot;description&quot;: &quot;&quot;}], &quot;required&quot;: [&quot;query&quot;], &quot;parameter_description&quot;: &quot;If you call this tool, you must pass arguments in the JSON format {key: value}, where the key is the parameter name.&quot;}, {&quot;name&quot;: &quot;BingBrowser.select&quot;, &quot;description&quot;: &quot;get the detailed content on the selected pages.&quot;, &quot;parameters&quot;: [{&quot;name&quot;: &quot;select_ids&quot;, &quot;type&quot;: &quot;NUMBER&quot;, &quot;description&quot;: &quot;list of index to select. Max number of index to be selected is no more than 4.&quot;}], &quot;required&quot;: [&quot;select_ids&quot;], &quot;parameter_description&quot;: &quot;If you call this tool, you must pass arguments in the JSON format {key: value}, where the key is the parameter name.&quot;}, {&quot;name&quot;: &quot;BingBrowser.open_url&quot;, &quot;description&quot;: &quot;&quot;, &quot;parameters&quot;: [{&quot;name&quot;: &quot;url&quot;, &quot;type&quot;: &quot;STRING&quot;, &quot;description&quot;: &quot;&quot;}], &quot;required&quot;: [&quot;url&quot;], &quot;parameter_description&quot;: &quot;If you call this tool, you must pass arguments in the JSON format {key: value}, where the key is the parameter name.&quot;}]\n## 回复格式\n\n调用工具时，请按照以下格式:\n```\n你的思考过程...&amp;lt;|action_start|&amp;gt;&amp;lt;|plugin|&amp;gt;{&quot;name&quot;: &quot;tool_name&quot;, &quot;parameters&quot;: {&quot;param1&quot;: &quot;value1&quot;}}&amp;lt;|action_end|&amp;gt;\n```\n\n## 要求\n\n- 回答中每个关键点需标注引用的搜索结果来源，以确保信息的可信度。给出索引的形式为`[[int]]`，如果有多个索引，则用多个[[]]表示，如`[[id_1]][[id_2]]`。\n- 基于&quot;当前问题&quot;的搜索结果，撰写详细完备的回复，优先回答&quot;当前问题&quot;。\n\n&#39;,&lt;/span&gt;&lt;/font&gt;&lt;/div&gt;&lt;div&gt;&lt;font color=&quot;#26c000&quot;&gt;&lt;span style=&quot;white-space: normal;&quot;&gt;&lt;span style=&quot;white-space:pre&quot;&gt;&#x9;&lt;/span&gt;&#39;name&#39;: &#39;plugin&#39;&lt;/span&gt;&lt;/font&gt;&lt;/div&gt;&lt;div&gt;&lt;font color=&quot;#26c000&quot;&gt;}, {&lt;/font&gt;&lt;/div&gt;&lt;div&gt;&lt;font color=&quot;#26c000&quot;&gt;&lt;span style=&quot;white-space: normal;&quot;&gt;&lt;span style=&quot;white-space:pre&quot;&gt;&#x9;&lt;/span&gt;&#39;role&#39;: &#39;user&#39;,&lt;/span&gt;&lt;/font&gt;&lt;/div&gt;&lt;div&gt;&lt;font color=&quot;#26c000&quot;&gt;&lt;span style=&quot;white-space: normal;&quot;&gt;&lt;span style=&quot;white-space:pre&quot;&gt;&#x9;&lt;/span&gt;&#39;content&#39;: &#39;## 主问题\n上海天气\n## 当前问题\n上海今天的天气怎么样？\n&#39;&lt;/span&gt;&lt;/font&gt;&lt;/div&gt;&lt;div&gt;&lt;font color=&quot;#26c000&quot;&gt;}, {&lt;/font&gt;&lt;/div&gt;&lt;div&gt;&lt;font color=&quot;#26c000&quot;&gt;&lt;span style=&quot;white-space: normal;&quot;&gt;&lt;span style=&quot;white-space:pre&quot;&gt;&#x9;&lt;/span&gt;&#39;role&#39;: &#39;assistant&#39;,&lt;/span&gt;&lt;/font&gt;&lt;/div&gt;&lt;div&gt;&lt;font color=&quot;#26c000&quot;&gt;&lt;span style=&quot;white-space: normal;&quot;&gt;&lt;span style=&quot;white-space:pre&quot;&gt;&#x9;&lt;/span&gt;&#39;content&#39;: &#39;为了获取上海今天的天气信息，需要明确查询的具体内容，包括日期和地点。由于问题中已经明确提到“今天”，因此查询应包含“今天”和“上海”这两个关键词。此外，为了确保查询结果的准确性和全面性，可以添加一些具体的天气信息，如温度、湿度、风力等。&amp;lt;|action_start|&amp;gt;&amp;lt;|plugin|&amp;gt;\n{&quot;name&quot;: &quot;BingBrowser.search&quot;, &quot;parameters&quot;: {&quot;query&quot;: [&lt;/span&gt;&lt;/font&gt;&lt;span style=&quot;background-color: initial;&quot;&gt;&lt;font color=&quot;#26c000&quot;&gt;&quot;上海今天天气&quot;, &quot;上海今天气温&quot;, &quot;上海今天湿度&quot;, &quot;上海今天风力&quot;&lt;/font&gt;&lt;/span&gt;&lt;span style=&quot;color: rgb(38, 192, 0); background-color: initial;&quot;&gt;]}}&amp;lt;|action_end|&amp;gt;\n&#39;&lt;/span&gt;&lt;/div&gt;&lt;div&gt;&lt;font color=&quot;#26c000&quot;&gt;}, {&lt;/font&gt;&lt;/div&gt;&lt;div&gt;&lt;font color=&quot;#26c000&quot;&gt;&lt;span style=&quot;white-space: normal;&quot;&gt;&lt;span style=&quot;white-space:pre&quot;&gt;&#x9;&lt;/span&gt;&#39;role&#39;: &#39;environment&#39;,&lt;/span&gt;&lt;/font&gt;&lt;/div&gt;&lt;div&gt;&lt;font color=&quot;#26c000&quot;&gt;&lt;span style=&quot;white-space: normal;&quot;&gt;&lt;span style=&quot;white-space:pre&quot;&gt;&#x9;&lt;/span&gt;&#39;content&#39;: &#39;{&quot;0&quot;: {&quot;url&quot;: &quot;https://weather.com/zh-CN/weather/hourbyhour/l/7f14186934f484d567841e8646abc61b81cce4d88470d519beeb5e115c9b425a&quot;, &quot;summ&quot;: &quot;每小时本地天气预报、天气情况、降水、露点、湿度、大风 - 尽在 Weather.com 和 The Weather Channel\\n每小时本地天气预报、天气情况、降水、露点、湿度、大风 - 尽在 Weather.com 和 The Weather Channel\\n每小时本地天气预报、天气情况、降水、露点、湿度、大风 - 尽在 Weather.com 和 The Weather Channel&quot;, &quot;title&quot;: &quot;上海市每小时天气预报 - The Weather Channel | Weather.com&quot;}}&#39;,&lt;/span&gt;&lt;/font&gt;&lt;/div&gt;&lt;div&gt;&lt;font color=&quot;#26c000&quot;&gt;&lt;span style=&quot;white-space: normal;&quot;&gt;&lt;span style=&quot;white-space:pre&quot;&gt;&#x9;&lt;/span&gt;&#39;name&#39;: &#39;plugin&#39;&lt;/span&gt;&lt;/font&gt;&lt;/div&gt;&lt;div&gt;&lt;font color=&quot;#26c000&quot;&gt;}, {&lt;/font&gt;&lt;/div&gt;&lt;div&gt;&lt;font color=&quot;#26c000&quot;&gt;&lt;span style=&quot;white-space: normal;&quot;&gt;&lt;span style=&quot;white-space:pre&quot;&gt;&#x9;&lt;/span&gt;&#39;role&#39;: &#39;assistant&#39;,&lt;/span&gt;&lt;/font&gt;&lt;/div&gt;&lt;div&gt;&lt;font color=&quot;#26c000&quot;&gt;&lt;span style=&quot;white-space: normal;&quot;&gt;&lt;span style=&quot;white-space:pre&quot;&gt;&#x9;&lt;/span&gt;&#39;content&#39;: &#39;&lt;/span&gt;&lt;/font&gt;&lt;span style=&quot;background-color: initial;&quot;&gt;&lt;font color=&quot;#26c000&quot;&gt;为了回答“上海今天的天气怎么样？”这个问题，我需要找到提供今天上海天气情况的网页。以下是我的分析和选择理由：\n\n1. **网页0**：提供了每小时本地天气预报，但没有明确指出是今天的天气情况。\n2. **网页1**：提供了今天上海的实况天气，包括温度、湿度、风力等信息，非常符合需求。\n3. **网页2**：提供了今天上海的天气预报详情，包括实时温度、降水概率、湿度等，非常详细。\n4. **网页3**：提供了今天的天气预报和天气提示，但没有详细说明今天的具体天气情况。\n5. **网页4**：提供了上海天气预报，但没有明确指出是今天的天气情况。\n6. **网页5**：提供了今天白天和夜间的天气预报，但没有详细说明今天的具体天气情况。\n7. **网页6**：提供了今天上海的逐小时天气预报，非常详细。\n8. **网页7**：提供了今天的天气实况和未来天气预报，非常详细。\n9. **网页8**：提供了全球天气公报，与上海今天的天气无关。\n10. **网页9**：提供了实时风图，与上海今天的天气无关。\n11. **网页10**：提供了上海天气预报，但没有明确指出是今天的天气情况。\n12. **网页11**：提供了每小时天气预报，但没有明确指出是今天的天气情况。\n13. **网页12**：提供了三日天气预报，与今天的天气无关。\n14. **网页13**：提供了上海天气预报，但没有明确指出是今天的天气情况。\n\n综合考虑，网页1、网页2、网页6和网页7提供了今天上海的天气实况和预报，信息最为详细和相关。因此，我选择这些网页进行进一步阅读。&amp;lt;|action_start|&amp;gt;&amp;lt;|plugin|&amp;gt;\n{&quot;name&quot;: &quot;BingBrowser.select&quot;, &quot;parameters&quot;: {&quot;select_ids&quot;: [1, 2, 6, 7]}}&lt;/font&gt;&lt;/span&gt;&lt;span style=&quot;color: rgb(38, 192, 0); background-color: initial;&quot;&gt;&amp;lt;|action_end|&amp;gt;\n&#39;&lt;/span&gt;&lt;/div&gt;&lt;div&gt;&lt;font color=&quot;#26c000&quot;&gt;}, {&lt;/font&gt;&lt;/div&gt;&lt;div&gt;&lt;font color=&quot;#26c000&quot;&gt;&lt;span style=&quot;white-space: normal;&quot;&gt;&lt;span style=&quot;white-space:pre&quot;&gt;&#x9;&lt;/span&gt;&#39;role&#39;: &#39;environment&#39;,&lt;/span&gt;&lt;/font&gt;&lt;/div&gt;&lt;div&gt;&lt;font color=&quot;#26c000&quot;&gt;&lt;span style=&quot;white-space: normal;&quot;&gt;&lt;span style=&quot;white-space:pre&quot;&gt;&#x9;&lt;/span&gt;&#39;content&#39;: &#39;&lt;/span&gt;&lt;/font&gt;&lt;span style=&quot;background-color: initial;&quot;&gt;&lt;font color=&quot;#26c000&quot;&gt;{&quot;7&quot;: {&quot;url&quot;: &quot;http://sh.cma.gov.cn/sh/tqyb/jrtq/&quot;, &quot;title&quot;: &quot;今日天气-上海市气象局&quot;, &quot;content&quot;: &quot;\\n今日天气-上海市气象局\\n网站地图\\n&amp;nbsp; &amp;nbsp; &amp;nbsp; &amp;nbsp; | 联系我们|\\n&amp;nbsp; &amp;nbsp; &amp;nbsp; &amp;nbsp; &amp;nbsp; &amp;nbsp; 加入收藏\\n&amp;nbsp; &amp;nbsp; &amp;nbsp; &amp;nbsp; \\nToggle navigation\\n首页\\n部门概况\\n新闻动态\\n政务公开\\n通知公告\\n气象服务\\n一网通办\\n互动交流\\n气象科普\\n各区气象\\n气象要闻\\n基层动态\\nCMA信息\\n应急减灾\\n党建文化\\n政府信息公开指南\\n政府信息公开制度\\n法定主动公开内容\\n依申请公开\\n政府信息公开年报\\n气象报告\\n今日天气\\n灾害天气预警\\n空气质量预报\\n五日天气预报\\n天气实况\\n卫星云图\\n雷达回波图\\n生活气象指数\\n高温情况\\n局长信箱\\n信访信箱\\n来信回复\\n气象视频\\n科技信息\\n气候变化\\n浦东气象\\n宝山气象\\n闵行气象\\n嘉定气象\\n金山气象\\n松江气象\\n青浦气象\\n奉贤气象\\n崇明气象\\n 当前位置：\\n&amp;nbsp; &amp;nbsp; &amp;nbsp; &amp;nbsp; &amp;nbsp; &amp;nbsp; &amp;nbsp; &amp;nbsp; &amp;nbsp; &amp;nbsp; 首页&amp;gt;上海市气象局&amp;gt;气象服务&amp;gt;今日天气\\n灾害天气预警\\n上海今日天气\\n上海中心气象台 \\n&amp;gt;&amp;gt;返回\\n&amp;nbsp; &amp;nbsp; &amp;nbsp; &amp;nbsp; &amp;nbsp; &amp;nbsp; &amp;nbsp; &amp;nbsp; 栏目导航\\n&amp;nbsp; &amp;nbsp; &amp;nbsp; &amp;nbsp; &amp;nbsp; &amp;nbsp; \\n气象报告\\n今日天气\\n灾害天气预警\\n空气质量预报\\n五日天气预报\\n天气实况\\n卫星云图\\n雷达回波图\\n生活气象指数\\n高温情况\\n天气实况\\n徐家汇\\n浦东\\n宝山\\n闵行\\n嘉定\\n金山\\n松江\\n青浦\\n奉贤\\n崇明\\n卫星云图\\n雷达回波图\\n&amp;nbsp; &amp;nbsp; &amp;nbsp; &amp;nbsp; &amp;nbsp; &amp;nbsp; &amp;nbsp; &amp;nbsp; &amp;nbsp; &amp;nbsp; &amp;nbsp; &amp;nbsp; &amp;nbsp; &amp;nbsp; 上海市生活气象指数\\n&amp;nbsp; &amp;nbsp; &amp;nbsp; &amp;nbsp; &amp;nbsp; &amp;nbsp; &amp;nbsp; &amp;nbsp; &amp;nbsp; &amp;nbsp; &amp;nbsp; &amp;nbsp; \\n&amp;nbsp; &amp;nbsp; &amp;nbsp; &amp;nbsp; &amp;nbsp; &amp;nbsp; &amp;nbsp; &amp;nbsp; &amp;nbsp; &amp;nbsp; &amp;nbsp; &amp;nbsp; &amp;nbsp; &amp;nbsp; &amp;nbsp; &amp;nbsp; &amp;nbsp; &amp;nbsp; &amp;nbsp; &amp;nbsp; 今天\\n&amp;nbsp; &amp;nbsp; &amp;nbsp; &amp;nbsp; &amp;nbsp; &amp;nbsp; &amp;nbsp; &amp;nbsp; &amp;nbsp; &amp;nbsp; &amp;nbsp; &amp;nbsp; &amp;nbsp; &amp;nbsp; &amp;nbsp; &amp;nbsp; &amp;nbsp; &amp;nbsp; \\n&amp;nbsp; &amp;nbsp; &amp;nbsp; &amp;nbsp; &amp;nbsp; &amp;nbsp; &amp;nbsp; &amp;nbsp; &amp;nbsp; &amp;nbsp; &amp;nbsp; &amp;nbsp; &amp;nbsp; &amp;nbsp; &amp;nbsp; &amp;nbsp; &amp;nbsp; &amp;nbsp; &amp;nbsp; &amp;nbsp; 明天\\n&amp;nbsp; &amp;nbsp; &amp;nbsp; &amp;nbsp; &amp;nbsp; &amp;nbsp; &amp;nbsp; &amp;nbsp; &amp;nbsp; &amp;nbsp; &amp;nbsp; &amp;nbsp; &amp;nbsp; &amp;nbsp; &amp;nbsp; &amp;nbsp; &amp;nbsp; &amp;nbsp; \\n手机版|电脑版\\n上海市气象局官方网站\\n&amp;nbsp; &amp;nbsp; &amp;nbsp; &amp;nbsp; &amp;nbsp; &amp;nbsp; 主办:上海市气象局办公室地址:上海市徐汇区蒲西路166号版权所有：上海市气象局\\n&amp;nbsp; &amp;nbsp; &amp;nbsp; &amp;nbsp; &amp;nbsp; &amp;nbsp; 电话:021-54896000邮政编码：200030\\n&amp;nbsp; &amp;nbsp; &amp;nbsp; &amp;nbsp; &amp;nbsp; &amp;nbsp; ICP备案号：京ICP备05004897号Copyright1997-2019\\n&amp;nbsp; &amp;nbsp; &amp;nbsp; &amp;nbsp; &amp;nbsp; &amp;nbsp; 网站标识码：bm54090001沪公安机关备案号31010402004850\\n&amp;nbsp; &amp;nbsp; &amp;nbsp; &amp;nbsp; &amp;nbsp; \\n&quot;}}&lt;/font&gt;&lt;/span&gt;&lt;span style=&quot;color: rgb(38, 192, 0); background-color: initial;&quot;&gt;&#39;,&lt;/span&gt;&lt;/div&gt;&lt;div&gt;&lt;font color=&quot;#26c000&quot;&gt;&lt;span style=&quot;white-space: normal;&quot;&gt;&lt;span style=&quot;white-space:pre&quot;&gt;&#x9;&lt;/span&gt;&#39;name&#39;: &#39;plugin&#39;&lt;/span&gt;&lt;/font&gt;&lt;/div&gt;&lt;div&gt;&lt;font color=&quot;#26c000&quot;&gt;}]&lt;/font&gt;&lt;/div&gt;" id="6S-SjZewDLx2lpDAVwIO-77">
          <mxCell style="rounded=0;whiteSpace=wrap;html=1;align=left;fillColor=#181818;fontColor=#3e78c0;strokeColor=#3A5431;" vertex="1" parent="6S-SjZewDLx2lpDAVwIO-36">
            <mxGeometry x="70" y="115" width="590" height="1115" as="geometry" />
          </mxCell>
        </object>
        <mxCell id="6S-SjZewDLx2lpDAVwIO-82" value="prompt组装(为示意缩减了enviroment内容)&lt;div&gt;-&amp;gt; 生成大模型response&lt;/div&gt;" style="rounded=0;whiteSpace=wrap;html=1;strokeColor=none;fillColor=none;align=left;" vertex="1" parent="6S-SjZewDLx2lpDAVwIO-36">
          <mxGeometry x="380" y="1240" width="242" height="33" as="geometry" />
        </mxCell>
        <mxCell id="wb-n8OnqzStXj1Gh0D1q-2" style="edgeStyle=orthogonalEdgeStyle;rounded=0;orthogonalLoop=1;jettySize=auto;html=1;entryX=0.511;entryY=0.001;entryDx=0;entryDy=0;entryPerimeter=0;" parent="RNOjfNPxnVxLPHalCjSS-48" target="6S-SjZewDLx2lpDAVwIO-35" edge="1">
          <mxGeometry relative="1" as="geometry">
            <mxPoint x="378" y="1200" as="sourcePoint" />
            <mxPoint x="385" y="1296" as="targetPoint" />
          </mxGeometry>
        </mxCell>
        <mxCell id="QWpg3al_tcsH8TkOB3aV-6" style="edgeStyle=orthogonalEdgeStyle;rounded=0;orthogonalLoop=1;jettySize=auto;html=1;exitX=0.5;exitY=1;exitDx=0;exitDy=0;entryX=0.507;entryY=0.002;entryDx=0;entryDy=0;entryPerimeter=0;" parent="RNOjfNPxnVxLPHalCjSS-48" source="QWpg3al_tcsH8TkOB3aV-2" target="6S-SjZewDLx2lpDAVwIO-36" edge="1">
          <mxGeometry relative="1" as="geometry" />
        </mxCell>
        <mxCell id="QWpg3al_tcsH8TkOB3aV-30" value="&lt;span style=&quot;font-size: 15px; font-weight: 400;&quot;&gt;MindSearchAgent&lt;/span&gt;" style="swimlane;whiteSpace=wrap;html=1;fillColor=#ffe6cc;strokeColor=#d79b00;startSize=50;" parent="1" vertex="1">
          <mxGeometry x="-300" y="290" width="930" height="3490" as="geometry" />
        </mxCell>
        <mxCell id="6S-SjZewDLx2lpDAVwIO-3" value="第 1 次调用大模型" style="swimlane;whiteSpace=wrap;html=1;fillColor=#f8cecc;strokeColor=#b85450;" vertex="1" parent="QWpg3al_tcsH8TkOB3aV-30">
          <mxGeometry x="30" y="70" width="874" height="1080" as="geometry">
            <mxRectangle x="30" y="70" width="140" height="30" as="alternateBounds" />
          </mxGeometry>
        </mxCell>
        <mxCell id="QWpg3al_tcsH8TkOB3aV-33" value="&lt;div style=&quot;text-align: justify;&quot;&gt;&lt;span style=&quot;font-size: 15px;&quot;&gt;【_generate_reference】&lt;/span&gt;&lt;br&gt;&lt;/div&gt;&lt;div style=&quot;text-align: justify;&quot;&gt;&lt;span style=&quot;font-size: 15px;&quot;&gt;只是修改了下history&lt;/span&gt;&lt;/div&gt;" style="whiteSpace=wrap;html=1;fillColor=#d5e8d4;strokeColor=#82b366;" parent="6S-SjZewDLx2lpDAVwIO-3" vertex="1">
          <mxGeometry x="25" y="980" width="820" height="60" as="geometry" />
        </mxCell>
        <mxCell id="QWpg3al_tcsH8TkOB3aV-32" style="edgeStyle=orthogonalEdgeStyle;rounded=0;orthogonalLoop=1;jettySize=auto;html=1;exitX=0.5;exitY=1;exitDx=0;exitDy=0;entryX=0.5;entryY=0;entryDx=0;entryDy=0;" parent="6S-SjZewDLx2lpDAVwIO-3" source="RNOjfNPxnVxLPHalCjSS-25" target="QWpg3al_tcsH8TkOB3aV-31" edge="1">
          <mxGeometry relative="1" as="geometry" />
        </mxCell>
        <object label="&lt;div&gt;为了回答这个问题，我们需要获取上海当前的天气状况。这可以通过查询天气API来实现。我们将创建一个搜索图，首先添加一个根节点来表示这个问题，然后添加一个节点来查询上海的天气。&amp;lt;|action_start|&amp;gt;&amp;lt;|interpreter|&amp;gt;&lt;/div&gt;&lt;div&gt;```python&lt;/div&gt;&lt;div&gt;&lt;br&gt;&lt;/div&gt;&lt;div&gt;from ilagent.agents.python_web import WebSearchGraph&lt;/div&gt;&lt;div&gt;&lt;br&gt;&lt;/div&gt;&lt;div&gt;graph = WebSearchGraph()&lt;/div&gt;&lt;div&gt;graph.add_root_node(node_content=&quot;上海天气怎么样&quot;, node_name=&quot;root&quot;)&lt;/div&gt;&lt;div&gt;&lt;br&gt;&lt;/div&gt;&lt;div&gt;graph.add_node(&lt;/div&gt;&lt;div&gt;&amp;nbsp; &amp;nbsp; node_name=&quot;上海天气&quot;,&lt;/div&gt;&lt;div&gt;&amp;nbsp; &amp;nbsp; node_content=&quot;上海今天的天气怎么样？&quot;)&lt;/div&gt;&lt;div&gt;graph.add_edge(start_node=&quot;root&quot;, end_node=&quot;上海天气&quot;)&lt;/div&gt;&lt;div&gt;&lt;br&gt;&lt;/div&gt;&lt;div&gt;graph.node(&quot;上海天气&quot;)&lt;/div&gt;&lt;div&gt;&lt;br&gt;&lt;/div&gt;&lt;div&gt;```&lt;/div&gt;" id="RNOjfNPxnVxLPHalCjSS-25">
          <mxCell style="rounded=0;whiteSpace=wrap;html=1;align=left;fillColor=#181818;fontColor=#3e78c0;strokeColor=#3A5431;" parent="6S-SjZewDLx2lpDAVwIO-3" vertex="1">
            <mxGeometry x="25" y="540" width="820" height="300" as="geometry" />
          </mxCell>
        </object>
        <mxCell id="RNOjfNPxnVxLPHalCjSS-32" value="" style="rounded=0;whiteSpace=wrap;html=1;fillStyle=auto;shadow=0;opacity=20;strokeWidth=1;" parent="6S-SjZewDLx2lpDAVwIO-3" vertex="1">
          <mxGeometry x="25" y="620" width="820" height="200" as="geometry" />
        </mxCell>
        <mxCell id="QWpg3al_tcsH8TkOB3aV-31" value="&lt;div style=&quot;font-weight: 700; text-align: justify;&quot;&gt;&lt;span style=&quot;font-size: 15px; font-weight: 400;&quot;&gt;【执行response中代码片段】&amp;lt;|interpreter|&amp;gt;&lt;/span&gt;&lt;/div&gt;&lt;div style=&quot;font-weight: 700; text-align: justify;&quot;&gt;&lt;span style=&quot;font-size: 15px; font-weight: 400;&quot;&gt;_process_code&lt;/span&gt;&lt;/div&gt;&lt;div style=&quot;font-weight: 700; text-align: justify;&quot;&gt;&lt;span style=&quot;font-size: 15px; font-weight: 400;&quot;&gt;-&amp;gt; execute_code&lt;/span&gt;&lt;/div&gt;" style="whiteSpace=wrap;html=1;fillColor=#d5e8d4;strokeColor=#82b366;" parent="6S-SjZewDLx2lpDAVwIO-3" vertex="1">
          <mxGeometry x="25" y="880" width="820" height="60" as="geometry" />
        </mxCell>
        <mxCell id="RNOjfNPxnVxLPHalCjSS-8" value="&lt;font style=&quot;font-size: 15px;&quot;&gt;MindSearchAgent.stream_chat&lt;/font&gt;" style="whiteSpace=wrap;html=1;fillColor=#d5e8d4;strokeColor=#82b366;" parent="6S-SjZewDLx2lpDAVwIO-3" vertex="1">
          <mxGeometry x="25" y="36" width="820" height="35" as="geometry" />
        </mxCell>
        <mxCell id="6S-SjZewDLx2lpDAVwIO-52" style="edgeStyle=orthogonalEdgeStyle;rounded=0;orthogonalLoop=1;jettySize=auto;html=1;entryX=0.5;entryY=0;entryDx=0;entryDy=0;" edge="1" parent="6S-SjZewDLx2lpDAVwIO-3" source="6S-SjZewDLx2lpDAVwIO-1" target="RNOjfNPxnVxLPHalCjSS-25">
          <mxGeometry relative="1" as="geometry" />
        </mxCell>
        <object label="&lt;div&gt;&lt;font color=&quot;#26c000&quot;&gt;[{&lt;/font&gt;&lt;/div&gt;&lt;div&gt;&lt;font color=&quot;#26c000&quot;&gt;&lt;span style=&quot;white-space: normal;&quot;&gt;&lt;span style=&quot;white-space:pre&quot;&gt;&#x9;&lt;/span&gt;&#39;role&#39;: &#39;system&#39;,&lt;/span&gt;&lt;/font&gt;&lt;/div&gt;&lt;div&gt;&lt;font color=&quot;#26c000&quot;&gt;&lt;span style=&quot;white-space: normal;&quot;&gt;&lt;span style=&quot;white-space:pre&quot;&gt;&#x9;&lt;/span&gt;&#39;content&#39;: &#39;The current date is 2024-08-11.&#39;&lt;/span&gt;&lt;/font&gt;&lt;/div&gt;&lt;div&gt;&lt;font color=&quot;#26c000&quot;&gt;}, {&lt;/font&gt;&lt;/div&gt;&lt;div&gt;&lt;font color=&quot;#26c000&quot;&gt;&lt;span style=&quot;white-space: normal;&quot;&gt;&lt;span style=&quot;white-space:pre&quot;&gt;&#x9;&lt;/span&gt;&#39;role&#39;: &#39;system&#39;,&lt;/span&gt;&lt;/font&gt;&lt;/div&gt;&lt;div&gt;&lt;font color=&quot;#26c000&quot;&gt;&lt;span style=&quot;white-space: normal;&quot;&gt;&lt;span style=&quot;white-space:pre&quot;&gt;&#x9;&lt;/span&gt;&#39;content&#39;: &quot;## 人物简介\n你是一个可以利用 Jupyter 环境 Python 编程的程序员。你可以利用提供的 API 来构建 Web 搜索图，最终生成代码并执行。\n\n## API 介绍\n\n下面是包含属性详细说明的 `WebSearchGraph` 类的 API 文档：\n\n### 类：`WebSearchGraph`\n\n此类用于管理网络搜索图的节点和边，并通过网络代理进行搜索。\n\n#### 初始化方法\n\n初始化 `WebSearchGraph` 实例。\n\n**属性：**\n\n- `nodes` (Dict[str, Dict[str, str]]): 存储图中所有节点的字典。每个节点由其名称索引，并包含内容、类型以及其他相关信息。\n- `adjacency_list` (Dict[str, List[str]]): 存储图中所有节点之间连接关系的邻接表。每个节点由其名称索引，并包含一个相邻节点名称的列表。\n\n\n#### 方法：`add_root_node`\n\n添加原始问题作为根节点。\n**参数：**\n\n- `node_content` (str): 用户提出的问题。\n- `node_name` (str, 可选): 节点名称，默认为 &#39;root&#39;。\n\n\n#### 方法：`add_node`\n\n添加搜索子问题节点并返回搜索结果。\n**参数：\n\n- `node_name` (str): 节点名称。\n- `node_content` (str): 子问题内容。\n\n**返回：**\n\n- `str`: 返回搜索结果。\n\n\n#### 方法：`add_response_node`\n\n当前获取的信息已经满足问题需求，添加回复节点。\n\n**参数：**\n\n- `node_name` (str, 可选): 节点名称，默认为 &#39;response&#39;。\n\n\n#### 方法：`add_edge`\n\n添加边。\n\n**参数：**\n\n- `start_node` (str): 起始节点名称。\n- `end_node` (str): 结束节点名称。\n\n\n#### 方法：`reset`\n\n重置节点和边。\n\n\n#### 方法：`node`\n\n获取节点信息。\n\n```python\ndef node(self, node_name: str) -&amp;gt; str\n```\n\n**参数：**\n\n- `node_name` (str): 节点名称。\n\n**返回：**\n\n- `str`: 返回包含节点信息的字典，包含节点的内容、类型、思考过程（如果有）和前驱节点列表。\n\n## 任务介绍\n通过将一个问题拆分成能够通过搜索回答的子问题(没有关联的问题可以同步并列搜索），每个搜索的问题应该是一个单一问题，即单个具体人、事、物、具体时间点、地点或知识点的问题，不是一个复合问题(比如某个时间段), 一步步构建搜索图，最终回答问题。\n\n## 注意事项\n\n1. 注意，每个搜索节点的内容必须单个问题，不要包含多个问题(比如同时问多个知识点的问题或者多个事物的比较加筛选，类似 A, B, C 有什么区别,那个价格在哪个区间 -&amp;gt; 分别查询)\n2. 不要杜撰搜索结果，要等待代码返回结果\n3. 同样的问题不要重复提问，可以在已有问题的基础上继续提问\n4. 添加 response 节点的时候，要单独添加，不要和其他节点一起添加，不能同时添加 response 节点和其他节点\n5. 一次输出中，不要包含多个代码块，每次只能有一个代码块\n6. 每个代码块应该放置在一个代码块标记中，同时生成完代码后添加一个&amp;lt;|action_end|&amp;gt;标志，如下所示：\n&amp;nbsp; &amp;nbsp; &amp;lt;|action_start|&amp;gt;&amp;lt;|interpreter|&amp;gt;```python\n&amp;nbsp; &amp;nbsp; # 你的代码块\n&amp;nbsp; &amp;nbsp; ```&amp;lt;|action_end|&amp;gt;\n7. 最后一次回复应该是添加node_name为&#39;response&#39;的 response 节点，必须添加 response 节点，不要添加其他节点\n&quot;,&lt;/span&gt;&lt;/font&gt;&lt;/div&gt;&lt;div&gt;&lt;font color=&quot;#26c000&quot;&gt;&lt;span style=&quot;white-space: normal;&quot;&gt;&lt;span style=&quot;white-space:pre&quot;&gt;&#x9;&lt;/span&gt;&#39;name&#39;: &#39;interpreter&#39;&lt;/span&gt;&lt;/font&gt;&lt;/div&gt;&lt;div&gt;&lt;font color=&quot;#26c000&quot;&gt;}, {&lt;/font&gt;&lt;/div&gt;&lt;div&gt;&lt;font color=&quot;#26c000&quot;&gt;&lt;span style=&quot;white-space: normal;&quot;&gt;&lt;span style=&quot;white-space:pre&quot;&gt;&#x9;&lt;/span&gt;&#39;role&#39;: &#39;user&#39;,&lt;/span&gt;&lt;/font&gt;&lt;/div&gt;&lt;div&gt;&lt;font color=&quot;#26c000&quot;&gt;&lt;span style=&quot;white-space: normal;&quot;&gt;&lt;span style=&quot;white-space:pre&quot;&gt;&#x9;&lt;/span&gt;&#39;content&#39;: &#39;上海天气怎么样&#39;&lt;/span&gt;&lt;/font&gt;&lt;/div&gt;&lt;div&gt;&lt;font color=&quot;#26c000&quot;&gt;}]&lt;/font&gt;&lt;/div&gt;" id="6S-SjZewDLx2lpDAVwIO-1">
          <mxCell style="rounded=0;whiteSpace=wrap;html=1;align=left;fillColor=#181818;fontColor=#3e78c0;strokeColor=#3A5431;" vertex="1" parent="6S-SjZewDLx2lpDAVwIO-3">
            <mxGeometry x="25" y="71" width="820" height="410" as="geometry" />
          </mxCell>
        </object>
        <mxCell id="6S-SjZewDLx2lpDAVwIO-54" value="prompt组装&lt;div&gt;-&amp;gt; 生成大模型response&lt;/div&gt;" style="rounded=0;whiteSpace=wrap;html=1;strokeColor=none;fillColor=none;align=left;" vertex="1" parent="6S-SjZewDLx2lpDAVwIO-3">
          <mxGeometry x="448" y="490" width="200" height="40" as="geometry" />
        </mxCell>
        <mxCell id="6S-SjZewDLx2lpDAVwIO-33" value="第 2 次调用大模型" style="swimlane;whiteSpace=wrap;html=1;fillColor=#f8cecc;strokeColor=#b85450;" vertex="1" parent="QWpg3al_tcsH8TkOB3aV-30">
          <mxGeometry x="30" y="1200" width="870" height="1030" as="geometry" />
        </mxCell>
        <mxCell id="6S-SjZewDLx2lpDAVwIO-89" style="edgeStyle=orthogonalEdgeStyle;rounded=0;orthogonalLoop=1;jettySize=auto;html=1;exitX=0.5;exitY=1;exitDx=0;exitDy=0;entryX=0.5;entryY=0;entryDx=0;entryDy=0;" edge="1" parent="6S-SjZewDLx2lpDAVwIO-33" source="QWpg3al_tcsH8TkOB3aV-36" target="QWpg3al_tcsH8TkOB3aV-37">
          <mxGeometry relative="1" as="geometry" />
        </mxCell>
        <mxCell id="QWpg3al_tcsH8TkOB3aV-36" value="&lt;div&gt;&lt;font color=&quot;#26c000&quot;&gt;[{&lt;/font&gt;&lt;/div&gt;&lt;div&gt;&lt;span style=&quot;white-space: normal;&quot;&gt;&lt;font color=&quot;#26c000&quot;&gt;&lt;span style=&quot;white-space:pre&quot;&gt;&#x9;&lt;/span&gt;&#39;role&#39;: &#39;system&#39;,&lt;/font&gt;&lt;/span&gt;&lt;/div&gt;&lt;div&gt;&lt;span style=&quot;white-space: normal;&quot;&gt;&lt;font color=&quot;#26c000&quot;&gt;&lt;span style=&quot;white-space:pre&quot;&gt;&#x9;&lt;/span&gt;&#39;content&#39;: &#39;The current date is 2024-08-12.&#39;&lt;/font&gt;&lt;/span&gt;&lt;/div&gt;&lt;div&gt;&lt;font color=&quot;#26c000&quot;&gt;}, {&lt;/font&gt;&lt;/div&gt;&lt;div&gt;&lt;span style=&quot;white-space: normal;&quot;&gt;&lt;font color=&quot;#26c000&quot;&gt;&lt;span style=&quot;white-space:pre&quot;&gt;&#x9;&lt;/span&gt;&#39;role&#39;: &#39;system&#39;,&lt;/font&gt;&lt;/span&gt;&lt;/div&gt;&lt;div&gt;&lt;span style=&quot;white-space: normal;&quot;&gt;&lt;font color=&quot;#26c000&quot;&gt;&lt;span style=&quot;white-space:pre&quot;&gt;&#x9;&lt;/span&gt;&#39;content&#39;: &quot;## 人物简介\n你是一个可以利用 Jupyter 环境 Python 编程的程序员。你可以利用提供的 API 来构建 Web 搜索图，最终生成代码并执行。\n\n## API 介绍\n\n下面是包含属性详细说明的 `WebSearchGraph` 类的 API 文档：\n\n### 类：`WebSearchGraph`\n\n此类用于管理网络搜索图的节点和边，并通过网络代理进行搜索。\n\n#### 初始化方法\n\n初始化 `WebSearchGraph` 实例。\n\n**属性：**\n\n- `nodes` (Dict[str, Dict[str, str]]): 存储图中所有节点的字典。每个节点由其名称索引，并包含内容、类型以及其他相关信息。\n- `adjacency_list` (Dict[str, List[str]]): 存储图中所有节点之间连接关系的邻接表。每个节点由其名称索引，并包含一个相邻节点名称的列表。\n\n\n#### 方法：`add_root_node`\n\n添加原始问题作为根节点。\n**参数：**\n\n- `node_content` (str): 用户提出的问题。\n- `node_name` (str, 可选): 节点名称，默认为 &#39;root&#39;。\n\n\n#### 方法：`add_node`\n\n添加搜索子问题节点并返回搜索结果。\n**参数：\n\n- `node_name` (str): 节点名称。\n- `node_content` (str): 子问题内容。\n\n**返回：**\n\n- `str`: 返回搜索结果。\n\n\n#### 方法：`add_response_node`\n\n当前获取的信息已经满足问题需求，添加回复节点。\n\n**参数：**\n\n- `node_name` (str, 可选): 节点名称，默认为 &#39;response&#39;。\n\n\n#### 方法：`add_edge`\n\n添加边。\n\n**参数：**\n\n- `start_node` (str): 起始节点名称。\n- `end_node` (str): 结束节点名称。\n\n\n#### 方法：`reset`\n\n重置节点和边。\n\n\n#### 方法：`node`\n\n获取节点信息。\n\n```python\ndef node(self, node_name: str) -&amp;gt; str\n```\n\n**参数：**\n\n- `node_name` (str): 节点名称。\n\n**返回：**\n\n- `str`: 返回包含节点信息的字典，包含节点的内容、类型、思考过程（如果有）和前驱节点列表。\n\n## 任务介绍\n通过将一个问题拆分成能够通过搜索回答的子问题(没有关联的问题可以同步并列搜索），每个搜索的问题应该是一个单一问题，即单个具体人、事、物、具体时间点、地点或知识点的问题，不是一个复合问题(比如某个时间段), 一步步构建搜索图，最终回答问题。\n\n## 注意事项\n\n1. 注意，每个搜索节点的内容必须单个问题，不要包含多个问题(比如同时问多个知识点的问题或者多个事物的比较加筛选，类似 A, B, C 有什么区别,那个价格在哪个区间 -&amp;gt; 分别查询)\n2. 不要杜撰搜索结果，要等待代码返回结果\n3. 同样的问题不要重复提问，可以在已有问题的基础上继续提问\n4. 添加 response 节点的时候，要单独添加，不要和其他节点一起添加，不能同时添加 response 节点和其他节点\n5. 一次输出中，不要包含多个代码块，每次只能有一个代码块\n6. 每个代码块应该放置在一个代码块标记中，同时生成完代码后添加一个&amp;lt;|action_end|&amp;gt;标志，如下所示：\n&amp;nbsp; &amp;nbsp; &amp;lt;|action_start|&amp;gt;&amp;lt;|interpreter|&amp;gt;```python\n&amp;nbsp; &amp;nbsp; # 你的代码块\n&amp;nbsp; &amp;nbsp; ```&amp;lt;|action_end|&amp;gt;\n7. 最后一次回复应该是添加node_name为&#39;response&#39;的 response 节点，必须添加 response 节点，不要添加其他节点\n&quot;,&lt;/font&gt;&lt;/span&gt;&lt;/div&gt;&lt;div&gt;&lt;span style=&quot;white-space: normal;&quot;&gt;&lt;font color=&quot;#26c000&quot;&gt;&lt;span style=&quot;white-space:pre&quot;&gt;&#x9;&lt;/span&gt;&#39;name&#39;: &#39;interpreter&#39;&lt;/font&gt;&lt;/span&gt;&lt;/div&gt;&lt;div&gt;&lt;font color=&quot;#26c000&quot;&gt;}, {&lt;/font&gt;&lt;/div&gt;&lt;div&gt;&lt;span style=&quot;white-space: normal;&quot;&gt;&lt;font color=&quot;#26c000&quot;&gt;&lt;span style=&quot;white-space:pre&quot;&gt;&#x9;&lt;/span&gt;&#39;role&#39;: &#39;user&#39;,&lt;/font&gt;&lt;/span&gt;&lt;/div&gt;&lt;div&gt;&lt;span style=&quot;white-space: normal;&quot;&gt;&lt;font color=&quot;#26c000&quot;&gt;&lt;span style=&quot;white-space:pre&quot;&gt;&#x9;&lt;/span&gt;&#39;content&#39;: &#39;上海天气怎么样啊&#39;&lt;/font&gt;&lt;/span&gt;&lt;/div&gt;&lt;div&gt;&lt;font color=&quot;#26c000&quot;&gt;}, {&lt;/font&gt;&lt;/div&gt;&lt;div&gt;&lt;span style=&quot;white-space: normal;&quot;&gt;&lt;font color=&quot;#26c000&quot;&gt;&lt;span style=&quot;white-space:pre&quot;&gt;&#x9;&lt;/span&gt;&#39;role&#39;: &#39;assistant&#39;,&lt;/font&gt;&lt;/span&gt;&lt;/div&gt;&lt;div&gt;&lt;span style=&quot;white-space: normal;&quot;&gt;&lt;font color=&quot;#26c000&quot;&gt;&lt;span style=&quot;white-space:pre&quot;&gt;&#x9;&lt;/span&gt;&#39;content&#39;: &#39;为了准确回答关于上海天气的问题，我们需要获取最新的天气信息。这可以通过查询上海的当前天气状况来实现。我们将使用 WebSearchGraph 类来构建搜索图，并添加必要的节点来获取所需信息。\n\n&amp;lt;|action_start|&amp;gt;&amp;lt;|plugin|&amp;gt;\n```python\n\nfrom ilagent.agents.python_web import WebSearchGraph\n\ngraph = WebSearchGraph()\ngraph.add_root_node(node_content=&quot;上海天气怎么样啊&quot;, node_name=&quot;root&quot;)\n\n# 添加节点查询上海的当前天气\ngraph.add_node(\n&amp;nbsp; &amp;nbsp; node_name=&quot;上海天气&quot;,\n&amp;nbsp; &amp;nbsp; node_content=&quot;上海今天的天气怎么样？&quot;)\ngraph.add_edge(start_node=&quot;root&quot;, end_node=&quot;上海天气&quot;)\n\ngraph.node(&quot;上海天气&quot;)\n\n```&amp;lt;|action_end|&amp;gt;\n&#39;&lt;/font&gt;&lt;/span&gt;&lt;/div&gt;&lt;div&gt;&lt;font color=&quot;#26c000&quot;&gt;}, {&lt;/font&gt;&lt;/div&gt;&lt;div&gt;&lt;span style=&quot;white-space: normal;&quot;&gt;&lt;font color=&quot;#26c000&quot;&gt;&lt;span style=&quot;white-space:pre&quot;&gt;&#x9;&lt;/span&gt;&#39;role&#39;: &#39;environment&#39;,&lt;/font&gt;&lt;/span&gt;&lt;/div&gt;&lt;div&gt;&lt;span style=&quot;white-space: normal;&quot;&gt;&lt;font color=&quot;#26c000&quot;&gt;&lt;span style=&quot;white-space:pre&quot;&gt;&#x9;&lt;/span&gt;&#39;content&#39;: &#39;## 上海天气\n\n今天上海的天气情况如下：\n\n1. **温度**：今天上海的最高气温预计为39°C，最低气温为29°C[[1]]。\n2. **降水**：今天上海有小雨，湿度较高，达到93%[[1]]。\n3. **风力**：今天上海的西南风风力为1级[[1]]。\n4. **空气质量**：今天上海的空气质量指数为63，属于良[[1]]。\n\n综合来看，今天上海的天气较为炎热，有小雨，湿度较高，空气质量良好。建议市民在出门时穿着轻便、透气的衣物，并注意防晒和补充水分。\n&#39;,&lt;/font&gt;&lt;/span&gt;&lt;/div&gt;&lt;div&gt;&lt;span style=&quot;white-space: normal;&quot;&gt;&lt;font color=&quot;#26c000&quot;&gt;&lt;span style=&quot;white-space:pre&quot;&gt;&#x9;&lt;/span&gt;&#39;name&#39;: &#39;plugin&#39;&lt;/font&gt;&lt;/span&gt;&lt;/div&gt;&lt;div&gt;&lt;font color=&quot;#26c000&quot;&gt;}]&lt;/font&gt;&lt;/div&gt;" style="rounded=0;whiteSpace=wrap;html=1;align=left;fillColor=#181818;fontColor=#3e78c0;strokeColor=#3A5431;" parent="6S-SjZewDLx2lpDAVwIO-33" vertex="1">
          <mxGeometry x="20" y="55" width="830" height="600" as="geometry" />
        </mxCell>
        <object label="&lt;div&gt;根据查询结果，今天上海的天气情况如下：&lt;/div&gt;&lt;div&gt;&lt;br&gt;&lt;/div&gt;&lt;div&gt;1. **温度**：最高气温预计为39°C，最低气温为29°C[[1]]。&lt;/div&gt;&lt;div&gt;2. **降水**：有小雨，湿度较高，达到93%[[1]]。&lt;/div&gt;&lt;div&gt;3. **风力**：西南风风力为1级[[1]]。&lt;/div&gt;&lt;div&gt;4. **空气质量**：空气质量指数为63，属于良[[1]]。&lt;/div&gt;&lt;div&gt;&lt;br&gt;&lt;/div&gt;&lt;div&gt;综合来看，今天上海的天气较为炎热，有小雨，湿度较高，空气质量良好。建议市民在出门时穿着轻便、透气的衣物，并注意防晒和补充水分。&lt;/div&gt;&lt;div&gt;&lt;br&gt;&lt;/div&gt;&lt;div&gt;现在，我将添加一个响应节点来总结这些信息。&amp;lt;|action_start|&amp;gt;&amp;lt;|interpreter|&amp;gt;&lt;/div&gt;&lt;div&gt;```python&lt;/div&gt;&lt;div&gt;&lt;br&gt;&lt;/div&gt;&lt;div&gt;graph.add_response_node(node_name=&quot;response&quot;)&lt;/div&gt;&lt;div&gt;&lt;br&gt;&lt;/div&gt;&lt;div&gt;```&lt;/div&gt;" id="QWpg3al_tcsH8TkOB3aV-37">
          <mxCell style="rounded=0;whiteSpace=wrap;html=1;align=left;fillColor=#181818;fontColor=#3e78c0;strokeColor=#3A5431;" parent="6S-SjZewDLx2lpDAVwIO-33" vertex="1">
            <mxGeometry x="20" y="685" width="830" height="230" as="geometry" />
          </mxCell>
        </object>
        <mxCell id="QWpg3al_tcsH8TkOB3aV-38" value="&lt;div style=&quot;font-weight: 700; text-align: justify;&quot;&gt;&lt;span style=&quot;font-size: 15px; font-weight: 400;&quot;&gt;【执行response中代码片段】&lt;/span&gt;&lt;span style=&quot;font-size: 15px; background-color: initial; font-weight: normal;&quot;&gt;&amp;lt;|interpreter|&amp;gt;&lt;/span&gt;&lt;/div&gt;&lt;div style=&quot;font-weight: 700; text-align: justify;&quot;&gt;&lt;span style=&quot;font-size: 15px; font-weight: 400;&quot;&gt;_process_code&lt;/span&gt;&lt;/div&gt;&lt;div style=&quot;font-weight: 700; text-align: justify;&quot;&gt;&lt;span style=&quot;font-size: 15px; font-weight: 400;&quot;&gt;-&amp;gt; execute_code&lt;/span&gt;&lt;/div&gt;" style="whiteSpace=wrap;html=1;fillColor=#d5e8d4;strokeColor=#82b366;" parent="6S-SjZewDLx2lpDAVwIO-33" vertex="1">
          <mxGeometry x="20" y="935" width="830" height="60" as="geometry" />
        </mxCell>
        <mxCell id="QWpg3al_tcsH8TkOB3aV-78" value="query" style="rounded=0;whiteSpace=wrap;html=1;strokeColor=none;fillColor=none;" parent="6S-SjZewDLx2lpDAVwIO-33" vertex="1">
          <mxGeometry x="20" y="35" width="100" height="20" as="geometry" />
        </mxCell>
        <mxCell id="QWpg3al_tcsH8TkOB3aV-79" value="response" style="rounded=0;whiteSpace=wrap;html=1;strokeColor=none;fillColor=none;" parent="6S-SjZewDLx2lpDAVwIO-33" vertex="1">
          <mxGeometry x="20" y="665" width="100" height="20" as="geometry" />
        </mxCell>
        <mxCell id="6S-SjZewDLx2lpDAVwIO-34" value="第 3 次调用大模型" style="swimlane;whiteSpace=wrap;html=1;fillColor=#f8cecc;strokeColor=#b85450;" vertex="1" parent="QWpg3al_tcsH8TkOB3aV-30">
          <mxGeometry x="30" y="2270" width="870" height="1060" as="geometry" />
        </mxCell>
        <mxCell id="QWpg3al_tcsH8TkOB3aV-40" value="&lt;div&gt;&lt;font color=&quot;#26c000&quot;&gt;[{&lt;/font&gt;&lt;/div&gt;&lt;div&gt;&lt;font color=&quot;#26c000&quot;&gt;&lt;span style=&quot;white-space: normal;&quot;&gt;&lt;span style=&quot;white-space:pre&quot;&gt;&#x9;&lt;/span&gt;&#39;role&#39;: &#39;system&#39;,&lt;/span&gt;&lt;/font&gt;&lt;/div&gt;&lt;div&gt;&lt;font color=&quot;#26c000&quot;&gt;&lt;span style=&quot;white-space: normal;&quot;&gt;&lt;span style=&quot;white-space:pre&quot;&gt;&#x9;&lt;/span&gt;&#39;content&#39;: &#39;The current date is 2024-08-12.&#39;&lt;/span&gt;&lt;/font&gt;&lt;/div&gt;&lt;div&gt;&lt;font color=&quot;#26c000&quot;&gt;}, {&lt;/font&gt;&lt;/div&gt;&lt;div&gt;&lt;font color=&quot;#26c000&quot;&gt;&lt;span style=&quot;white-space: normal;&quot;&gt;&lt;span style=&quot;white-space:pre&quot;&gt;&#x9;&lt;/span&gt;&#39;role&#39;: &#39;system&#39;,&lt;/span&gt;&lt;/font&gt;&lt;/div&gt;&lt;div&gt;&lt;font color=&quot;#26c000&quot;&gt;&lt;span style=&quot;white-space: normal;&quot;&gt;&lt;span style=&quot;white-space:pre&quot;&gt;&#x9;&lt;/span&gt;&#39;content&#39;: &quot;## 人物简介\n你是一个可以利用 Jupyter 环境 Python 编程的程序员。你可以利用提供的 API 来构建 Web 搜索图，最终生成代码并执行。\n\n## API 介绍\n\n下面是包含属性详细说明的 `WebSearchGraph` 类的 API 文档：\n\n### 类：`WebSearchGraph`\n\n此类用于管理网络搜索图的节点和边，并通过网络代理进行搜索。\n\n#### 初始化方法\n\n初始化 `WebSearchGraph` 实例。\n\n**属性：**\n\n- `nodes` (Dict[str, Dict[str, str]]): 存储图中所有节点的字典。每个节点由其名称索引，并包含内容、类型以及其他相关信息。\n- `adjacency_list` (Dict[str, List[str]]): 存储图中所有节点之间连接关系的邻接表。每个节点由其名称索引，并包含一个相邻节点名称的列表。\n\n\n#### 方法：`add_root_node`\n\n添加原始问题作为根节点。\n**参数：**\n\n- `node_content` (str): 用户提出的问题。\n- `node_name` (str, 可选): 节点名称，默认为 &#39;root&#39;。\n\n\n#### 方法：`add_node`\n\n添加搜索子问题节点并返回搜索结果。\n**参数：\n\n- `node_name` (str): 节点名称。\n- `node_content` (str): 子问题内容。\n\n**返回：**\n\n- `str`: 返回搜索结果。\n\n\n#### 方法：`add_response_node`\n\n当前获取的信息已经满足问题需求，添加回复节点。\n\n**参数：**\n\n- `node_name` (str, 可选): 节点名称，默认为 &#39;response&#39;。\n\n\n#### 方法：`add_edge`\n\n添加边。\n\n**参数：**\n\n- `start_node` (str): 起始节点名称。\n- `end_node` (str): 结束节点名称。\n\n\n#### 方法：`reset`\n\n重置节点和边。\n\n\n#### 方法：`node`\n\n获取节点信息。\n\n```python\ndef node(self, node_name: str) -&amp;gt; str\n```\n\n**参数：**\n\n- `node_name` (str): 节点名称。\n\n**返回：**\n\n- `str`: 返回包含节点信息的字典，包含节点的内容、类型、思考过程（如果有）和前驱节点列表。\n\n## 任务介绍\n通过将一个问题拆分成能够通过搜索回答的子问题(没有关联的问题可以同步并列搜索），每个搜索的问题应该是一个单一问题，即单个具体人、事、物、具体时间点、地点或知识点的问题，不是一个复合问题(比如某个时间段), 一步步构建搜索图，最终回答问题。\n\n## 注意事项\n\n1. 注意，每个搜索节点的内容必须单个问题，不要包含多个问题(比如同时问多个知识点的问题或者多个事物的比较加筛选，类似 A, B, C 有什么区别,那个价格在哪个区间 -&amp;gt; 分别查询)\n2. 不要杜撰搜索结果，要等待代码返回结果\n3. 同样的问题不要重复提问，可以在已有问题的基础上继续提问\n4. 添加 response 节点的时候，要单独添加，不要和其他节点一起添加，不能同时添加 response 节点和其他节点\n5. 一次输出中，不要包含多个代码块，每次只能有一个代码块\n6. 每个代码块应该放置在一个代码块标记中，同时生成完代码后添加一个&amp;lt;|action_end|&amp;gt;标志，如下所示：\n&amp;nbsp; &amp;nbsp; &amp;lt;|action_start|&amp;gt;&amp;lt;|interpreter|&amp;gt;```python\n&amp;nbsp; &amp;nbsp; # 你的代码块\n&amp;nbsp; &amp;nbsp; ```&amp;lt;|action_end|&amp;gt;\n7. 最后一次回复应该是添加node_name为&#39;response&#39;的 response 节点，必须添加 response 节点，不要添加其他节点\n&quot;,&lt;/span&gt;&lt;/font&gt;&lt;/div&gt;&lt;div&gt;&lt;font color=&quot;#26c000&quot;&gt;&lt;span style=&quot;white-space: normal;&quot;&gt;&lt;span style=&quot;white-space:pre&quot;&gt;&#x9;&lt;/span&gt;&#39;name&#39;: &#39;interpreter&#39;&lt;/span&gt;&lt;/font&gt;&lt;/div&gt;&lt;div&gt;&lt;font color=&quot;#26c000&quot;&gt;}, {&lt;/font&gt;&lt;/div&gt;&lt;div&gt;&lt;font color=&quot;#26c000&quot;&gt;&lt;span style=&quot;white-space: normal;&quot;&gt;&lt;span style=&quot;white-space:pre&quot;&gt;&#x9;&lt;/span&gt;&#39;role&#39;: &#39;user&#39;,&lt;/span&gt;&lt;/font&gt;&lt;/div&gt;&lt;div&gt;&lt;font color=&quot;#26c000&quot;&gt;&lt;span style=&quot;white-space: normal;&quot;&gt;&lt;span style=&quot;white-space:pre&quot;&gt;&#x9;&lt;/span&gt;&#39;content&#39;: &#39;上海天气怎么样啊&#39;&lt;/span&gt;&lt;/font&gt;&lt;/div&gt;&lt;div&gt;&lt;font color=&quot;#26c000&quot;&gt;}, {&lt;/font&gt;&lt;/div&gt;&lt;div&gt;&lt;font color=&quot;#26c000&quot;&gt;&lt;span style=&quot;white-space: normal;&quot;&gt;&lt;span style=&quot;white-space:pre&quot;&gt;&#x9;&lt;/span&gt;&#39;role&#39;: &#39;assistant&#39;,&lt;/span&gt;&lt;/font&gt;&lt;/div&gt;&lt;div&gt;&lt;font color=&quot;#26c000&quot;&gt;&lt;span style=&quot;white-space: normal;&quot;&gt;&lt;span style=&quot;white-space:pre&quot;&gt;&#x9;&lt;/span&gt;&#39;content&#39;: &#39;为了准确回答关于上海天气的问题，我们需要获取最新的天气信息。这可以通过查询上海的当前天气状况来实现。我们将使用 WebSearchGraph 类来构建搜索图，并添加必要的节点来获取所需信息。\n\n&amp;lt;|action_start|&amp;gt;&amp;lt;|plugin|&amp;gt;\n```python\n\nfrom ilagent.agents.python_web import WebSearchGraph\n\ngraph = WebSearchGraph()\ngraph.add_root_node(node_content=&quot;上海天气怎么样啊&quot;, node_name=&quot;root&quot;)\n\n# 添加节点查询上海的当前天气\ngraph.add_node(\n&amp;nbsp; &amp;nbsp; node_name=&quot;上海天气&quot;,\n&amp;nbsp; &amp;nbsp; node_content=&quot;上海今天的天气怎么样？&quot;)\ngraph.add_edge(start_node=&quot;root&quot;, end_node=&quot;上海天气&quot;)\n\ngraph.node(&quot;上海天气&quot;)\n\n```&amp;lt;|action_end|&amp;gt;\n&#39;&lt;/span&gt;&lt;/font&gt;&lt;/div&gt;&lt;div&gt;&lt;font color=&quot;#26c000&quot;&gt;}, {&lt;/font&gt;&lt;/div&gt;&lt;div&gt;&lt;font color=&quot;#26c000&quot;&gt;&lt;span style=&quot;white-space: normal;&quot;&gt;&lt;span style=&quot;white-space:pre&quot;&gt;&#x9;&lt;/span&gt;&#39;role&#39;: &#39;environment&#39;,&lt;/span&gt;&lt;/font&gt;&lt;/div&gt;&lt;div&gt;&lt;font color=&quot;#26c000&quot;&gt;&lt;span style=&quot;white-space: normal;&quot;&gt;&lt;span style=&quot;white-space:pre&quot;&gt;&#x9;&lt;/span&gt;&#39;content&#39;: &#39;## 上海天气\n\n今天上海的天气情况如下：\n\n1. **温度**：今天上海的最高气温预计为39°C，最低气温为29°C[[1]]。\n2. **降水**：今天上海有小雨，湿度较高，达到93%[[1]]。\n3. **风力**：今天上海的西南风风力为1级[[1]]。\n4. **空气质量**：今天上海的空气质量指数为63，属于良[[1]]。\n\n综合来看，今天上海的天气较为炎热，有小雨，湿度较高，空气质量良好。建议市民在出门时穿着轻便、透气的衣物，并注意防晒和补充水分。\n&#39;,&lt;/span&gt;&lt;/font&gt;&lt;/div&gt;&lt;div&gt;&lt;font color=&quot;#26c000&quot;&gt;&lt;span style=&quot;white-space: normal;&quot;&gt;&lt;span style=&quot;white-space:pre&quot;&gt;&#x9;&lt;/span&gt;&#39;name&#39;: &#39;plugin&#39;&lt;/span&gt;&lt;/font&gt;&lt;/div&gt;&lt;div&gt;&lt;font color=&quot;#26c000&quot;&gt;}, {&lt;/font&gt;&lt;/div&gt;&lt;div&gt;&lt;font color=&quot;#26c000&quot;&gt;&lt;span style=&quot;white-space: normal;&quot;&gt;&lt;span style=&quot;white-space:pre&quot;&gt;&#x9;&lt;/span&gt;&#39;role&#39;: &#39;assistant&#39;,&lt;/span&gt;&lt;/font&gt;&lt;/div&gt;&lt;div&gt;&lt;font color=&quot;#26c000&quot;&gt;&lt;span style=&quot;white-space: normal;&quot;&gt;&lt;span style=&quot;white-space:pre&quot;&gt;&#x9;&lt;/span&gt;&#39;content&#39;: &#39;根据查询结果，今天上海的天气情况如下：\n\n1. **温度**：最高气温预计为39°C，最低气温为29°C[[1]]。\n2. **降水**：有小雨，湿度较高，达到93%[[1]]。\n3. **风力**：西南风风力为1级[[1]]。\n4. **空气质量**：空气质量指数为63，属于良[[1]]。\n\n综合来看，今天上海的天气较为炎热，有小雨，湿度较高，空气质量良好。建议市民在出门时穿着轻便、透气的衣物，并注意防晒和补充水分。\n\n现在，我将添加一个响应节点来总结这些信息。&amp;lt;|action_start|&amp;gt;&amp;lt;|plugin|&amp;gt;\n```python\n\ngraph.add_response_node(node_name=&quot;response&quot;)\n\n```&amp;lt;|action_end|&amp;gt;\n&#39;&lt;/span&gt;&lt;/font&gt;&lt;/div&gt;&lt;div&gt;&lt;font color=&quot;#26c000&quot;&gt;}, {&lt;/font&gt;&lt;/div&gt;&lt;div&gt;&lt;font color=&quot;#26c000&quot;&gt;&lt;span style=&quot;white-space: normal;&quot;&gt;&lt;span style=&quot;white-space:pre&quot;&gt;&#x9;&lt;/span&gt;&#39;role&#39;: &#39;environment&#39;,&lt;/span&gt;&lt;/font&gt;&lt;/div&gt;&lt;div&gt;&lt;font color=&quot;#26c000&quot;&gt;&lt;span style=&quot;white-space: normal;&quot;&gt;&lt;span style=&quot;white-space:pre&quot;&gt;&#x9;&lt;/span&gt;&#39;content&#39;: &#39;基于提供的问答对，撰写一篇详细完备的最终回答。\n- 回答内容需要逻辑清晰，层次分明，确保读者易于理解。\n- 回答中每个关键点需标注引用的搜索结果来源(保持跟问答对中的索引一致)，以确保信息的可信度。给出索引的形式为`[[int]]`，如果有多个索引，则用多个[[]]表示，如`[[id_1]][[id_2]]`。\n- 回答部分需要全面且完备，不要出现&quot;基于上述内容&quot;等模糊表达，最终呈现的回答不包括提供给你的问答对。\n- 语言风格需要专业、严谨，避免口语化表达。\n- 保持统一的语法和词汇使用，确保整体文档的一致性和连贯性。&#39;,&lt;/span&gt;&lt;/font&gt;&lt;/div&gt;&lt;div&gt;&lt;font color=&quot;#26c000&quot;&gt;&lt;span style=&quot;white-space: normal;&quot;&gt;&lt;span style=&quot;white-space:pre&quot;&gt;&#x9;&lt;/span&gt;&#39;name&#39;: &#39;plugin&#39;&lt;/span&gt;&lt;/font&gt;&lt;/div&gt;&lt;div&gt;&lt;font color=&quot;#26c000&quot;&gt;}]&lt;/font&gt;&lt;/div&gt;" style="rounded=0;whiteSpace=wrap;html=1;align=left;fillColor=#181818;fontColor=#3e78c0;strokeColor=#3A5431;" parent="6S-SjZewDLx2lpDAVwIO-34" vertex="1">
          <mxGeometry x="20" y="50" width="830" height="790" as="geometry" />
        </mxCell>
        <object label="&lt;div&gt;今天上海的天气情况如下：&lt;/div&gt;&lt;div&gt;&lt;br&gt;&lt;/div&gt;&lt;div&gt;1. **温度**：今天上海的最高气温预计为39°C，最低气温为29°C[[1]]。&lt;/div&gt;&lt;div&gt;2. **降水**：今天上海有小雨，湿度较高，达到93%[[1]]。&lt;/div&gt;&lt;div&gt;3. **风力**：今天上海的西南风风力为1级[[1]]。&lt;/div&gt;&lt;div&gt;4. **空气质量**：今天上海的空气质量指数为63，属于良[[1]]。&lt;/div&gt;&lt;div&gt;&lt;br&gt;&lt;/div&gt;&lt;div&gt;综合来看，今天上海的天气较为炎热，有小雨，湿度较高，空气质量良好。建议市民在出门时穿着轻便、透气的衣物，并注意防晒和补充水分。&lt;/div&gt;" id="QWpg3al_tcsH8TkOB3aV-41">
          <mxCell style="rounded=0;whiteSpace=wrap;html=1;align=left;fillColor=#181818;fontColor=#3e78c0;strokeColor=#3A5431;" parent="6S-SjZewDLx2lpDAVwIO-34" vertex="1">
            <mxGeometry x="20" y="880" width="830" height="150" as="geometry" />
          </mxCell>
        </object>
        <mxCell id="QWpg3al_tcsH8TkOB3aV-80" value="query" style="rounded=0;whiteSpace=wrap;html=1;strokeColor=none;fillColor=none;" parent="6S-SjZewDLx2lpDAVwIO-34" vertex="1">
          <mxGeometry x="20" y="30" width="100" height="20" as="geometry" />
        </mxCell>
        <mxCell id="QWpg3al_tcsH8TkOB3aV-81" value="response" style="rounded=0;whiteSpace=wrap;html=1;strokeColor=none;fillColor=none;" parent="6S-SjZewDLx2lpDAVwIO-34" vertex="1">
          <mxGeometry x="20" y="850" width="100" height="20" as="geometry" />
        </mxCell>
        <mxCell id="6S-SjZewDLx2lpDAVwIO-84" style="edgeStyle=orthogonalEdgeStyle;rounded=0;orthogonalLoop=1;jettySize=auto;html=1;exitX=0.5;exitY=1;exitDx=0;exitDy=0;" edge="1" parent="QWpg3al_tcsH8TkOB3aV-30" source="QWpg3al_tcsH8TkOB3aV-33" target="6S-SjZewDLx2lpDAVwIO-33">
          <mxGeometry relative="1" as="geometry" />
        </mxCell>
        <mxCell id="6S-SjZewDLx2lpDAVwIO-85" style="edgeStyle=orthogonalEdgeStyle;rounded=0;orthogonalLoop=1;jettySize=auto;html=1;exitX=0.5;exitY=1;exitDx=0;exitDy=0;" edge="1" parent="QWpg3al_tcsH8TkOB3aV-30" source="QWpg3al_tcsH8TkOB3aV-38" target="6S-SjZewDLx2lpDAVwIO-34">
          <mxGeometry relative="1" as="geometry" />
        </mxCell>
        <mxCell id="6S-SjZewDLx2lpDAVwIO-86" value="结束" style="ellipse;whiteSpace=wrap;html=1;fillColor=#d5e8d4;strokeColor=#82b366;" vertex="1" parent="QWpg3al_tcsH8TkOB3aV-30">
          <mxGeometry x="405" y="3390" width="120" height="80" as="geometry" />
        </mxCell>
        <mxCell id="6S-SjZewDLx2lpDAVwIO-87" style="edgeStyle=orthogonalEdgeStyle;rounded=0;orthogonalLoop=1;jettySize=auto;html=1;exitX=0.5;exitY=1;exitDx=0;exitDy=0;" edge="1" parent="QWpg3al_tcsH8TkOB3aV-30" source="QWpg3al_tcsH8TkOB3aV-41" target="6S-SjZewDLx2lpDAVwIO-86">
          <mxGeometry relative="1" as="geometry" />
        </mxCell>
        <mxCell id="6S-SjZewDLx2lpDAVwIO-58" style="edgeStyle=orthogonalEdgeStyle;rounded=0;orthogonalLoop=1;jettySize=auto;html=1;entryX=1;entryY=0.5;entryDx=0;entryDy=0;exitX=0.5;exitY=1;exitDx=0;exitDy=0;" edge="1" parent="1" source="QWpg3al_tcsH8TkOB3aV-4" target="QWpg3al_tcsH8TkOB3aV-33">
          <mxGeometry relative="1" as="geometry">
            <mxPoint x="1290" y="3620" as="sourcePoint" />
            <Array as="points">
              <mxPoint x="1195" y="4640" />
              <mxPoint x="744" y="4640" />
              <mxPoint x="744" y="1370" />
            </Array>
          </mxGeometry>
        </mxCell>
        <mxCell id="6S-SjZewDLx2lpDAVwIO-59" value="&lt;font style=&quot;font-size: 12px;&quot;&gt;生成的response&lt;/font&gt;&lt;div&gt;&lt;font style=&quot;font-size: 12px;&quot;&gt;添加到history中&lt;/font&gt;&lt;/div&gt;" style="edgeLabel;html=1;align=center;verticalAlign=middle;resizable=0;points=[];" vertex="1" connectable="0" parent="6S-SjZewDLx2lpDAVwIO-58">
          <mxGeometry x="0.4785" y="2" relative="1" as="geometry">
            <mxPoint x="-2" y="286" as="offset" />
          </mxGeometry>
        </mxCell>
      </root>
    </mxGraphModel>
  </diagram>
</mxfile>
